<?xml version="1.0" encoding="UTF-8"?>
<svg id="Layer_1" data-name="Layer 1" xmlns="http://www.w3.org/2000/svg" xmlns:xlink="http://www.w3.org/1999/xlink" viewBox="0 0 220 84.73">
  <defs>
    <style>
      .cls-1 {
        fill: #40515a;
      }

      .cls-2 {
        fill: #ffd300;
      }

      .cls-2, .cls-3 {
        fill-rule: evenodd;
      }

      .cls-4 {
        fill: none;
      }

      .cls-5 {
        fill: #ffd422;
      }

      .cls-3 {
        fill: #ffdc00;
      }

      .cls-6 {
        fill: #ffc10e;
      }

      .cls-7 {
        fill: url(#linear-gradient);
      }

      .cls-8 {
        clip-path: url(#clippath);
      }
    </style>
    <clipPath id="clippath">
      <path class="cls-4" d="M107.02,34.51v10.88c0,2.14-1.38,3.43-2.9,3.76v6.55c4.91-.34,9.9-3.48,9.9-9.91v-19.6l-7,8.31Z"/>
    </clipPath>
    <linearGradient id="linear-gradient" x1="109.07" y1="55.71" x2="109.07" y2="26.2" gradientUnits="userSpaceOnUse">
      <stop offset="0" stop-color="#40515a"/>
      <stop offset=".4" stop-color="#40515a"/>
      <stop offset=".62" stop-color="#2c3a42"/>
      <stop offset="1" stop-color="#231f20"/>
    </linearGradient>
  </defs>
  <polygon class="cls-3" points="45.57 30.42 67.55 4.23 62.52 0 9.32 0 45.57 30.42"/>
  <polygon class="cls-2" points="44.63 84.73 71.77 52.4 45.57 30.42 0 84.73 44.63 84.73"/>
  <rect class="cls-6" x="52.56" y="11.22" width="34.19" height="34.19" transform="translate(3.2 63.48) rotate(-50)"/>
  <path class="cls-1" d="M104.09,49.16c1.52-.34,2.9-1.63,2.9-3.76v-19.19h7v19.6c0,6.43-4.99,9.57-9.9,9.91v-6.55Z"/>
  <path class="cls-1" d="M142.5,55.67c-5.2,0-10.79-3.36-10.79-10.73v-14.59h7.09v14.16c0,2.64,1.9,4.07,3.68,4.07s3.69-1.42,3.69-4.07v-14.16h7.1v14.59c0,7.37-5.59,10.73-10.78,10.73"/>
  <path class="cls-1" d="M185.31,54.97v-14.35c0-2.44-1.8-3.76-3.49-3.76s-3.49,1.33-3.49,3.8v14.31h-6.71v-14.31c0-2.47-1.79-3.8-3.47-3.8s-3.47,1.32-3.47,3.76v14.35h-7.01v-14.78c0-9.4,7.34-10.41,10.5-10.41,1.53,0,3.73.38,5.54,2.19l1.33,1.33,1.28-1.37c1.2-1.3,3.22-2.11,5.4-2.14,2.47,0,10.6.75,10.6,10.41v14.78h-7.01Z"/>
  <path class="cls-1" d="M118.01,45.8v-19.6h7v19.19c0,2.14,1.38,3.43,2.9,3.76v6.55c-4.91-.34-9.9-3.48-9.9-9.91"/>
  <path class="cls-1" d="M209.38,45.8v-19.6h7v19.19c0,2.14,1.38,3.43,2.9,3.76v6.55c-4.91-.34-9.9-3.48-9.9-9.91"/>
  <g class="cls-8">
    <rect class="cls-7" x="104.12" y="26.2" width="9.9" height="29.51"/>
  </g>
  <polygon class="cls-1" points="80.07 55 104.33 26.2 113.99 26.2 89.73 55 80.07 55"/>
  <polygon class="cls-5" points="204.44 26.2 197.39 26.2 197.39 35.19 197.39 39.79 204.44 31.42 204.44 26.2"/>
  <polygon class="cls-1" points="197.39 44.94 197.39 54.97 204.4 54.97 204.4 36.61 197.39 44.94"/>
  <path class="cls-1" d="M216.63,67.55c.29-.79.58-1.59.88-2.4.29-.81.59-1.62.89-2.43.3-.81.59-1.61.88-2.41h-.51l-1.05,2.89-.64,1.8h-.01c-.11-.3-.21-.6-.32-.91-.1-.3-.21-.6-.31-.9l-1.04-2.89h-.52c.32.9.65,1.79.97,2.67.32.89.65,1.77.98,2.66l-.69,1.91h.47ZM212.92,63.24v1.21c-.14.15-.3.28-.47.4-.17.12-.35.22-.55.29-.2.07-.41.12-.65.13-.29,0-.53-.05-.74-.14-.2-.09-.36-.23-.47-.41-.11-.18-.16-.41-.16-.67,0-.27.07-.5.19-.69.12-.19.29-.33.51-.42.21-.1.46-.14.72-.14.22,0,.42.02.6.06.18.04.35.09.51.15.16.07.33.15.5.24ZM212.92,65.57h.5v-3.71c0-.36-.07-.67-.21-.91-.14-.24-.35-.42-.62-.55-.27-.12-.6-.18-.99-.18-.32,0-.61.03-.88.1-.26.06-.51.15-.75.26l.17.42c.21-.1.43-.18.66-.24.23-.06.47-.09.73-.09.3,0,.55.04.76.13.21.09.36.23.47.42.11.19.16.44.16.76v.84c-.19-.11-.38-.2-.57-.26-.18-.06-.36-.1-.53-.13-.17-.02-.33-.03-.48-.03-.41,0-.76.08-1.04.22-.29.14-.51.34-.66.59-.15.25-.23.54-.23.86,0,.29.05.54.15.74.1.21.23.37.39.5.16.13.35.22.55.28.2.06.4.09.61.09.13,0,.26,0,.4-.02.14-.02.29-.05.44-.09.15-.05.31-.12.47-.21.16-.1.33-.22.5-.38h.01v.62ZM207.28,64.45c-.12.15-.26.28-.42.41-.17.12-.35.22-.55.29-.2.07-.4.11-.62.11-.23,0-.44-.06-.63-.17-.19-.11-.36-.26-.5-.47-.14-.2-.25-.44-.33-.71-.08-.27-.12-.57-.12-.9,0-.48.07-.9.2-1.25.13-.35.33-.63.58-.82.25-.19.56-.29.92-.29.19,0,.37.04.55.11.18.07.35.17.51.29.16.12.29.26.4.4v2.99ZM207.76,65.57v-7.35l-.5.23v2.42h-.01c-.19-.18-.37-.31-.54-.41-.17-.09-.33-.16-.48-.19-.15-.03-.3-.05-.44-.05-.21,0-.41.03-.62.09-.21.06-.4.16-.59.29-.19.13-.35.31-.49.53-.14.22-.26.48-.34.79-.08.31-.13.67-.13,1.08,0,.46.06.86.17,1.2.11.34.26.62.45.83.19.22.4.38.62.49.23.11.46.16.69.16.12,0,.24,0,.38-.02.13-.01.27-.04.42-.09.14-.04.29-.12.44-.21.15-.09.3-.22.46-.38h.01v.58h.5ZM196.6,67.55c.29-.79.58-1.59.88-2.4.29-.81.59-1.62.89-2.43.3-.81.59-1.61.88-2.41h-.51l-1.05,2.89-.64,1.8h-.01c-.11-.3-.21-.6-.32-.91-.1-.3-.21-.6-.31-.9l-1.04-2.89h-.52c.32.9.65,1.79.97,2.67.32.89.65,1.77.98,2.66l-.69,1.91h.47ZM191.7,61.16v-.85s-.5,0-.5,0v5.27h.51v-3.15c0-.24.03-.46.1-.66.06-.2.16-.38.29-.53.13-.15.29-.27.48-.36.19-.08.41-.13.66-.13.09,0,.18,0,.28.02.1.01.19.03.3.05l.11-.5c-.1-.03-.21-.05-.31-.07-.1-.01-.21-.02-.31-.02-.21,0-.42.03-.63.1-.21.07-.39.17-.55.31-.16.14-.3.32-.4.54h-.02ZM188.9,62.73h-3.27c.02-.41.11-.78.25-1.09.14-.31.33-.56.57-.73.24-.17.5-.26.8-.27.29,0,.54.06.74.17.21.11.38.26.51.45.13.19.23.41.29.66.06.25.1.52.1.8ZM187.27,60.22c-.3,0-.58.06-.84.19-.26.12-.49.31-.68.55-.19.24-.34.53-.45.86-.11.34-.16.72-.16,1.14,0,.46.06.87.18,1.21.12.34.28.62.48.85.2.22.43.39.69.5.26.11.52.16.8.16.32,0,.61-.05.89-.16.27-.1.53-.26.76-.48l-.29-.32c-.19.17-.4.3-.62.39-.22.09-.45.14-.68.14-.23,0-.45-.04-.65-.13-.2-.09-.38-.22-.54-.4-.16-.18-.28-.4-.37-.66-.09-.26-.14-.57-.16-.92h3.76v-.29c0-.39-.05-.75-.14-1.07-.1-.32-.23-.6-.41-.83-.18-.23-.4-.41-.66-.54-.26-.12-.56-.19-.9-.19ZM182.08,65.57c.31-.88.63-1.76.94-2.63.31-.88.63-1.75.95-2.63h-.52l-1.09,3.14-.52,1.51h-.02l-.53-1.51c-.19-.52-.38-1.05-.56-1.57-.19-.52-.37-1.05-.55-1.57h-.53l1.92,5.27h.51ZM177.93,62.73h-3.27c.02-.41.11-.78.25-1.09.14-.31.33-.56.57-.73.24-.17.5-.26.8-.27.29,0,.54.06.74.17.21.11.38.26.51.45.13.19.23.41.3.66.06.25.1.52.1.8ZM176.3,60.22c-.3,0-.58.06-.84.19-.26.12-.49.31-.68.55-.19.24-.34.53-.45.86-.11.34-.16.72-.16,1.14,0,.46.06.87.18,1.21.12.34.28.62.48.85.2.22.43.39.69.5.26.11.52.16.8.16.32,0,.61-.05.89-.16.27-.1.53-.26.76-.48l-.29-.32c-.19.17-.4.3-.62.39-.22.09-.45.14-.68.14-.23,0-.45-.04-.65-.13-.2-.09-.38-.22-.54-.4-.16-.18-.28-.4-.37-.66-.09-.26-.14-.57-.16-.92h3.76v-.29c0-.39-.05-.75-.14-1.07-.1-.32-.23-.6-.41-.83-.18-.23-.4-.41-.66-.54-.26-.12-.56-.19-.9-.19ZM169.15,62.73h-3.27c.02-.41.11-.78.25-1.09.14-.31.33-.56.57-.73.24-.17.5-.26.8-.27.29,0,.54.06.74.17.21.11.38.26.51.45.13.19.23.41.3.66.06.25.1.52.1.8ZM167.52,60.22c-.3,0-.58.06-.84.19-.26.12-.49.31-.68.55-.19.24-.34.53-.45.86-.11.34-.16.72-.16,1.14,0,.46.06.87.18,1.21.12.34.28.62.48.85.2.22.43.39.69.5.26.11.52.16.8.16.32,0,.61-.05.89-.16.27-.1.53-.26.76-.48l-.29-.32c-.19.17-.4.3-.62.39-.22.09-.45.14-.68.14-.23,0-.45-.04-.65-.13-.2-.09-.38-.22-.54-.4-.16-.18-.28-.4-.37-.66-.09-.26-.14-.57-.16-.92h3.76v-.29c0-.39-.05-.75-.14-1.07-.1-.32-.23-.6-.41-.83-.18-.23-.4-.41-.66-.54-.26-.12-.56-.19-.9-.19ZM162.3,60.22c-.29,0-.56.06-.82.17-.26.12-.48.29-.68.52-.19.23-.35.51-.46.85-.11.34-.17.74-.17,1.19,0,.45.06.85.17,1.19.11.34.26.63.46.85.19.23.42.4.67.52.25.12.52.17.81.17.25,0,.47-.03.67-.08.2-.05.37-.13.53-.23.15-.1.3-.22.42-.36l-.32-.31c-.14.13-.27.23-.4.31-.13.08-.26.14-.4.18-.14.04-.29.06-.46.06-.26,0-.49-.06-.69-.17-.2-.11-.37-.27-.51-.48-.14-.21-.25-.45-.32-.72-.07-.28-.11-.58-.11-.9s.04-.61.11-.89c.07-.28.18-.52.31-.73.14-.21.3-.37.5-.49.2-.12.42-.18.67-.18.23,0,.45.04.66.12.22.08.43.22.63.41l.33-.35c-.22-.22-.47-.38-.73-.48-.26-.1-.55-.15-.87-.15ZM158.49,62.33c0-.72-.15-1.25-.46-1.6-.3-.35-.75-.52-1.35-.51-.13,0-.28.02-.42.05-.15.04-.3.1-.45.17-.15.08-.29.19-.42.32-.13.13-.25.29-.35.48h-.02v-.95h-.5v5.28h.5v-3.13c0-.08,0-.17.02-.25.01-.09.03-.17.05-.24.04-.17.11-.34.2-.49.09-.15.2-.29.33-.41.13-.12.27-.21.43-.28.16-.07.33-.1.52-.1.48,0,.83.14,1.06.42.23.28.35.73.35,1.33v3.16h.51v-3.24ZM152.41,62.73h-3.27c.02-.41.11-.78.25-1.09.14-.31.33-.56.57-.73.24-.17.5-.26.8-.27.29,0,.54.06.74.17.21.11.38.26.51.45.13.19.23.41.3.66.06.25.1.52.1.8ZM150.78,60.22c-.3,0-.58.06-.84.19-.26.12-.49.31-.68.55-.19.24-.34.53-.45.86-.11.34-.16.72-.16,1.14,0,.46.06.87.18,1.21.12.34.28.62.48.85.2.22.43.39.69.5.26.11.52.16.8.16.32,0,.61-.05.89-.16.27-.1.53-.26.76-.48l-.29-.32c-.19.17-.4.3-.62.39-.22.09-.45.14-.68.14-.23,0-.45-.04-.65-.13-.2-.09-.38-.22-.54-.4-.16-.18-.28-.4-.37-.66-.09-.26-.14-.57-.16-.92h3.76v-.29c0-.39-.05-.75-.14-1.07-.1-.32-.23-.6-.41-.83-.18-.23-.4-.41-.66-.54-.26-.12-.56-.19-.9-.19ZM146.73,65.57v-7.36l-.49.23v7.14h.49ZM144.07,65.57v-7.36l-.49.23v7.14h.49ZM141.29,62.73h-3.27c.02-.41.11-.78.25-1.09.14-.31.33-.56.57-.73.24-.17.5-.26.8-.27.29,0,.54.06.74.17.21.11.38.26.51.45.13.19.23.41.3.66.06.25.1.52.1.8ZM139.66,60.22c-.3,0-.58.06-.84.19-.26.12-.49.31-.68.55-.19.24-.34.53-.45.86-.11.34-.16.72-.16,1.14,0,.46.06.87.18,1.21.12.34.28.62.48.85.2.22.43.39.69.5.26.11.52.16.8.16.32,0,.61-.05.89-.16.27-.1.53-.26.76-.48l-.29-.32c-.19.17-.4.3-.62.39-.22.09-.45.14-.68.14-.23,0-.45-.04-.65-.13-.2-.09-.38-.22-.54-.4-.16-.18-.28-.4-.37-.66-.09-.26-.14-.57-.16-.92h3.76v-.29c0-.39-.05-.75-.14-1.07-.1-.32-.23-.6-.41-.83-.18-.23-.4-.41-.66-.54-.26-.12-.56-.19-.9-.19ZM134.43,60.22c-.29,0-.56.06-.82.17-.26.12-.48.29-.68.52-.19.23-.35.51-.46.85-.11.34-.17.74-.17,1.19,0,.45.06.85.17,1.19.11.34.26.63.46.85.19.23.42.4.67.52.25.12.52.17.81.17.25,0,.47-.03.67-.08.2-.05.37-.13.53-.23.15-.1.3-.22.42-.36l-.32-.31c-.14.13-.27.23-.4.31-.13.08-.26.14-.4.18-.14.04-.29.06-.46.06-.26,0-.49-.06-.69-.17-.2-.11-.37-.27-.51-.48-.14-.21-.25-.45-.32-.72-.07-.28-.11-.58-.11-.9s.04-.61.11-.89c.07-.28.18-.52.31-.73.14-.21.3-.37.5-.49.2-.12.42-.18.67-.18.23,0,.45.04.66.12.22.08.43.22.63.41l.33-.35c-.23-.22-.47-.38-.73-.48-.26-.1-.55-.15-.87-.15ZM130.86,65.57l-1.61-2.74,1.5-2.53h-.55l-1.22,2.1-1.22-2.1h-.55l1.49,2.56-1.61,2.71h.55l1.33-2.29,1.3,2.29h.59ZM125.28,62.73h-3.27c.02-.41.11-.78.25-1.09.14-.31.33-.56.57-.73.24-.17.5-.26.8-.27.29,0,.54.06.74.17.21.11.38.26.51.45.13.19.23.41.3.66.06.25.1.52.1.8ZM123.65,60.22c-.3,0-.58.06-.84.19-.26.12-.49.31-.68.55-.19.24-.34.53-.45.86-.11.34-.16.72-.16,1.14,0,.46.06.87.18,1.21.12.34.28.62.48.85.2.22.43.39.69.5.26.11.52.16.8.16.32,0,.61-.05.89-.16.27-.1.53-.26.76-.48l-.29-.32c-.19.17-.4.3-.62.39-.22.09-.45.14-.68.14-.23,0-.45-.04-.65-.13-.2-.09-.38-.22-.54-.4-.16-.18-.28-.4-.37-.66-.09-.26-.14-.57-.16-.92h3.76v-.29c0-.39-.05-.75-.14-1.07-.1-.32-.23-.6-.41-.83-.18-.23-.4-.41-.66-.54-.26-.12-.56-.19-.9-.19ZM114.72,65.24c-.36,0-.66-.1-.9-.29-.23-.19-.41-.46-.52-.81-.11-.35-.17-.77-.17-1.26,0-.32.04-.62.12-.89.08-.27.19-.51.34-.71.14-.2.31-.36.51-.47.19-.11.4-.17.63-.17.21,0,.41.04.61.12.2.08.37.18.54.3.16.12.3.26.41.41v2.91c-.11.14-.25.28-.42.41-.17.13-.35.23-.55.32-.2.08-.4.13-.6.13ZM116.78,65.27v-4.97h-.51v.6h-.01c-.15-.15-.29-.28-.44-.37-.14-.09-.28-.16-.42-.21-.14-.04-.27-.08-.4-.09-.13-.01-.25-.02-.36-.02-.19,0-.38.03-.57.1-.19.07-.37.18-.54.32-.17.14-.32.32-.46.53-.13.22-.24.47-.32.76-.08.29-.12.62-.12.99,0,.51.06.95.16,1.3.11.35.25.63.44.85.19.21.4.37.63.46.24.09.48.14.74.14.13,0,.29-.01.46-.05.17-.04.36-.11.56-.21.2-.1.42-.26.64-.46h.01v.5c0,.18-.02.36-.07.53-.05.18-.13.35-.26.51-.12.17-.29.32-.5.47-.21.15-.48.28-.81.4l.17.42c.46-.15.83-.34,1.12-.58.29-.24.5-.52.64-.84.14-.32.2-.68.2-1.08ZM110.95,62.33c0-.72-.15-1.25-.46-1.6-.3-.35-.75-.52-1.35-.51-.13,0-.28.02-.42.05-.15.04-.3.1-.45.17-.15.08-.29.19-.42.32-.13.13-.25.29-.35.48h-.02v-.95h-.5v5.28h.5v-3.13c0-.08,0-.17.02-.25.01-.09.03-.17.05-.24.04-.17.11-.34.2-.49.09-.15.2-.29.33-.41.13-.12.27-.21.43-.28.16-.07.33-.1.52-.1.47,0,.83.14,1.06.42.23.28.35.73.35,1.33v3.16h.51v-3.24ZM104.85,65.57v-5.28h-.5v5.28h.5ZM104.95,58.81c0-.09-.04-.17-.11-.24-.07-.06-.15-.1-.25-.1-.09,0-.17.04-.24.1-.06.06-.1.14-.1.24,0,.1.04.18.1.25.06.07.15.1.24.11.1,0,.17-.04.24-.11.07-.07.1-.15.1-.25ZM101.72,64.45c-.12.15-.26.28-.42.41-.17.12-.35.22-.55.29-.2.07-.4.11-.62.11-.23,0-.44-.06-.63-.17s-.36-.26-.5-.47c-.14-.2-.25-.44-.33-.71-.08-.27-.12-.57-.12-.9,0-.48.07-.9.2-1.25.13-.35.33-.63.58-.82.25-.19.56-.29.92-.29.19,0,.37.04.55.11.18.07.35.17.51.29.16.12.29.26.4.4v2.99ZM102.21,65.57v-7.35l-.5.23v2.42h-.01c-.19-.18-.37-.31-.54-.41-.17-.09-.33-.16-.48-.19-.15-.03-.3-.05-.44-.05-.21,0-.41.03-.62.09-.21.06-.4.16-.59.29-.19.13-.35.31-.49.53-.14.22-.26.48-.34.79-.08.31-.13.67-.13,1.08,0,.46.06.86.17,1.2.11.34.26.62.45.83.19.22.4.38.62.49.23.11.46.16.69.16.12,0,.24,0,.38-.02.13-.01.27-.04.42-.09.14-.04.29-.12.44-.21.15-.09.3-.22.46-.38h.01v.58h.5ZM96.15,65.57v-7.36l-.49.23v7.14h.49ZM93.35,65.57v-5.28h-.5v5.28h.5ZM93.45,58.81c0-.09-.04-.17-.11-.24-.07-.06-.15-.1-.25-.1-.09,0-.17.04-.24.1-.06.06-.1.14-.1.24,0,.1.04.18.1.25.06.07.15.1.24.11.1,0,.17-.04.24-.11.07-.07.1-.15.1-.25ZM86.79,63.6c0,.48.07.88.2,1.19.13.31.33.54.59.68.26.15.59.22.98.22.18,0,.37-.03.57-.1.2-.07.39-.18.57-.33.19-.15.35-.35.48-.6h.02v.9h.5v-5.27h-.5v3.16c0,.09,0,.18-.02.27-.01.09-.03.17-.06.26-.06.23-.16.44-.3.63-.13.19-.3.34-.49.46-.2.12-.41.17-.66.18-.32,0-.58-.06-.78-.18-.2-.12-.35-.31-.45-.57-.1-.26-.15-.59-.15-1.01v-3.19h-.51v3.3ZM82.78,62.03c.24,0,.47.03.67.1.21.07.39.17.55.3.16.13.28.29.37.48.09.19.13.4.13.64,0,.31-.06.59-.19.81-.12.23-.31.4-.56.53-.25.12-.55.19-.92.19h-2.25v-3.05h2.19ZM82.86,59.03c.3,0,.55.05.74.16.2.1.34.25.44.44.1.19.15.41.15.66,0,.23-.06.45-.17.64-.11.19-.27.35-.48.46-.21.12-.46.17-.76.18h-2.18v-2.53h2.27ZM85.03,63.53c0-.21-.03-.42-.1-.61-.07-.19-.16-.37-.29-.53-.13-.16-.28-.29-.46-.39-.18-.11-.38-.18-.6-.22v-.02c.19-.06.36-.14.5-.24.14-.11.26-.23.35-.37.09-.14.16-.29.21-.44.05-.15.07-.31.07-.46,0-.37-.08-.67-.23-.93-.15-.25-.37-.45-.64-.58-.28-.13-.61-.2-.99-.2h-2.76v7.03h2.71c.48,0,.89-.08,1.23-.23.33-.15.59-.38.76-.69.17-.3.26-.68.26-1.12Z"/>
</svg>