<svg xmlns="http://www.w3.org/2000/svg" viewBox="0 0 283.46 89.01">
        <title>GEZE</title>
        <desc>GEZE</desc>
        <g id="bounding_box-header" data-name="bounding box">
            <rect class="cls-1" fill="none" width="283.46" height="89.01"></rect>
        </g>
        <g id="GEZE_Logo-header" data-name="GEZE Logo">
            <path class="cls-2"
                  fill="#002364"
                  d="M270.27,89H13.2A13.21,13.21,0,0,1,0,75.82V13.19A13.21,13.21,0,0,1,13.2,0H270.27a13.21,13.21,0,0,1,13.2,13.19V75.82A13.21,13.21,0,0,1,270.27,89ZM13.2,9.82a3.37,3.37,0,0,0-3.37,3.36V75.82a3.37,3.37,0,0,0,3.37,3.36H270.27a3.37,3.37,0,0,0,3.37-3.36V13.19a3.37,3.37,0,0,0-3.37-3.36ZM220.75,49.23H254V39.41H220.75V30.46H260.1V20.16H207.18V68.9H260.1V58.59H220.75Zm-118.57,0h33.23V39.41H102.18V30.46h39.35V20.16H88.61V68.9h52.92V58.59H102.18Zm97.75-18.77V20.16H149v10.3h33.21L149,58.59V68.9H201.5V58.59H166.6ZM68.75,56.65a1.62,1.62,0,0,1-.66,1.51c-.12.11-.47.43-2.16.43h-26c-1.54,0-2.92-.15-3-1.95V32.39c0-1.79,1.43-1.94,3-1.94H80V20.16H36.55c-10.49,0-13.27,8-13.27,12.24V56.65c0,4.23,2.77,12.24,13.27,12.24H68.38c4.57,0,7.22-1.41,9.09-3.11a11.82,11.82,0,0,0,4-9.14V39.43H50.42v9.78H68.75Z"></path>
        </g>
    </svg>