<?xml version="1.0" encoding="utf-8"?>
<!-- Generator: Adobe Illustrator 24.3.0, SVG Export Plug-In . SVG Version: 6.00 Build 0)  -->
<svg version="1.1" id="图层_1" xmlns="http://www.w3.org/2000/svg" xmlns:xlink="http://www.w3.org/1999/xlink" x="0px" y="0px"
	 viewBox="0 0 1920 578.62" style="enable-background:new 0 0 1920 578.62;" xml:space="preserve">
<style type="text/css">
	.st0{fill-rule:evenodd;clip-rule:evenodd;fill:#003087;}
</style>
<path class="st0" d="M1857.29,302.18l-13.61-56.03h15.85c9.37,0,9.15-5.89,9.15-14.06v-22.11h-25.31
	c-4.02,29-19.73,67.1-32.89,93.46l-21.46-18.2l-36.94,13.3c-2.89-8.76-7.6-17.51-10.71-26.28c-12.89,3.86-23.14,7.56-30.74,10.69
	c-12.44,5.15-26.76,11.42-42.71,18.96l-31.7-39.7c10.66-7.15,13.94-17.16,13.94-29.92c0-66.81,0-133.61,0-200.35h40.92l-5.34-25.66
	l54.99-5.84c2.04,12.83,4.54,23.35,5.34,31.5h36.16v153.6h-19.94c6.36,15.9,11.97,30.03,16.89,42.48
	c8.29-13.31,14.03-27.33,14.43-81.66c0.32-43.08,0-93.4,0-136.43c42.08,0,84.22,0,126.35,0v35.12v56.2v164.78
	C1920,300.77,1873.06,301.75,1857.29,302.18z M1731.99,75.98h-30.49v14.58h30.49V75.98z M1731.99,126.89h-30.49v14.59h30.49V126.89z
	 M1701.5,185.53v47.01c6.2-1.41,13.04-3.36,21.74-7.61c-3.47-8.95-7.15-17.22-11.03-25.98l39.59-13.42H1701.5z M1868.69,65.8h-24.7
	v20.73h24.7V65.8z M1868.69,137.88h-24.7v1.2c0,5.95,0.21,13.82,0,19.49h24.7V137.88z M1661.5,467.65c3.25-0.94,6.09-0.66,8.58,0.88
	c2.46,1.5,2.76,2.85,0.86,3.99c-1.91,1.14-7.44,2.64-16.59,4.54c4.2,3.42,5.91,5.78,5.15,7.11c-0.75,1.35-1.35,5.99-1.71,13.95
	c3.41-0.75,6.39-1.31,8.86-1.7c2.49-0.39,4.3,0.11,5.44,1.44c1.15,1.31,0,2.65-3.44,3.99c-3.41,1.31-7.05,2.35-10.85,3.14
	c-0.39,7.97-0.59,15.55-0.59,22.77c6.48-3.43,11.54-5.88,15.15-7.42c3.63-1.5,4.78-1.4,3.44,0.3c-1.34,1.7-6.85,5.61-16.59,11.7
	c-9.71,6.07-16.09,10.53-19.14,13.37c-3.06,2.87-6.96,2.67-11.71-0.56c-4.77-3.22-5.34-5.02-1.73-5.42
	c3.63-0.36,7.34-1.31,11.17-2.84c3.81-1.5,8.17-3.6,13.15-6.27v-23.92c-6.49,1.5-11.34,1.6-14.58,0.31c-3.25-1.35-3.35-2.4-0.3-3.15
	c3.05-0.78,8-2.1,14.88-3.98c0-9.51-0.78-16.73-2.3-21.67c-6.1,1.54-10.85,1.44-14.29-0.28c-3.44-1.71-3.35-2.95,0.29-3.7
	c3.61-0.75,8.19-1.8,13.7-3.12C1653.9,469.74,1658.26,468.63,1661.5,467.65z M1582.86,553.97c-6.29-0.36-11.91-0.36-16.86,0
	c-4.95,0.4-9.33,0.76-13.14,1.15c-3.83,0.39-8.29,1.04-13.44,1.99c-5.15,0.95-9.63,1.8-13.44,2.58c-3.8,0.74-7.34,1.5-10.56,2.26
	c-3.24,0.78-6.78,0-10.58-2.26c-3.81-2.3-4-3.53-0.56-3.73c3.41-0.2,6.76-0.45,10-0.84c3.22-0.39,12.3-1.7,27.15-3.99v-25.64
	c-3.81,0.4-7.44,0.78-10.85,1.14c-3.44,0.39-6.98,0-10.59-1.14c-3.6-1.15-2.49-2.16,3.44-3.14c5.9-0.94,11.9-2.35,18-4.25
	c0-7.97-0.11-13-0.3-15.1c-0.2-2.1-0.85-4.48-2-7.12c-7.25,1.12-12.56,1.7-16,1.7c-3.05,0-6-0.58-8.86-1.7
	c-2.87-1.15-1.83-2.08,3.15-2.87c4.96-0.75,11.8-2.27,20.56-4.55c8.78-2.29,16.39-4.17,22.87-5.68c6.47-1.53,11.52-1.34,15.15,0.55
	c3.6,1.9,2.09,3.69-4.59,5.44c-6.65,1.69-15.13,3.49-25.43,5.39c3.44,3.03,4.68,5.51,3.73,7.42c-0.95,1.89-1.44,6.82-1.44,14.79
	c4.2-0.74,8.19-1.6,12-2.54c3.83-0.95,6.97-0.59,9.43,1.14c2.49,1.7,1.91,3.23-1.71,4.54c-3.63,1.34-10.19,2.78-19.73,4.29
	l-0.56,25.64l28.59-4c3.79-0.77,7.31-0.28,10.56,1.42c3.24,1.73,4.95,3.43,5.15,5.13C1592.19,553.7,1589.15,554.36,1582.86,553.97z
	 M1550.56,463.97c3.44,2.27,4.48,5.6,3.14,9.95c-1.34,4.38-3.63,5.04-6.86,2c-3.24-3.04-6.39-6.07-9.43-9.11
	c-2.65-3.41-4.19-5.78-4.58-7.13c-0.36-1.31,1.64-1.5,6-0.55C1543.22,460.08,1547.12,461.68,1550.56,463.97z M1556.47,182.83
	c-17.64-8.91-34.21-19.26-49.79-29.84c-12.34,8.12-24.18,15.62-37.47,20.54v15.13h94.25v45.04h-94.25v11.99h109.4v53.47h-277.25
	v-53.47h111.94V233.7h-95.81v-45.04h95.81V174.9h-44.46V6.34h51.31v164.71h26.76l-26.12-36.02c14.58-3.83,28.03-10.23,38.72-18.15
	c-10.44-9.8-20.35-21.03-29.8-31.61l25.82-25.4h-21.83V9.93h139.88v49.93c0,19.5-13.75,38.81-27.25,56.53
	c12.7,7.57,27.13,13.76,41.73,19.52L1556.47,182.83z M1474,59.86c7.25,8.86,14.55,16.31,26.14,24.63
	c8.13-8.57,14.39-17.31,18.72-24.63H1474z M1306.15,23.8H1355v140.98h-48.84V23.8z M1334.16,507.25
	c3.41-13.66,5.41-24.02,6.01-31.04c0.55-7.01,0.09-11.96-1.45-14.8c-1.51-2.86-0.85-3.98,2-3.42c2.85,0.56,5.34,1.44,7.43,2.54
	c2.1,1.14,8.95,0.88,20.57-0.84c11.63-1.7,18.78-3.41,21.44-5.13c2.68-1.7,5.53-1.8,8.58-0.27c3.05,1.5,5.8,3.31,8.29,5.4
	c2.46,2.09,1.9,3.89-1.73,5.42c-3.61,1.5-7.32,5.51-11.14,11.96c4.58,4.18,3.63,6.47-2.86,6.82c-6.46,0.39-21.15,1.93-44,4.57
	c-1.54,7.58-3.83,15.75-6.88,24.51c2.68,0.36,6.59,0.36,11.73,0c5.15-0.4,11.91-1.15,20.3-2.29c2.3-9.12,2.76-15.29,1.41-18.52
	c-1.31-3.24-0.56-4.44,2.3-3.7c2.85,0.76,5.54,1.99,8,3.7c2.49,1.73,3.05,3.33,1.73,4.84c-1.35,1.53-2.78,5.71-4.3,12.53
	c18.29-1.88,29.44-3.43,33.44-4.54c4-1.15,7.24-1.26,9.71-0.3c2.49,0.95,4.96,2.65,7.44,5.14c2.49,2.45-0.1,3.59-7.71,3.39
	c-7.63-0.17-15.15,0-22.59,0.59c-7.43,0.56-14.77,1.23-21.99,1.98l-6.87,22.22c12.97-1.89,20.48-3.6,22.58-5.13
	c2.1-1.51,5.05-1.59,8.86-0.29c3.83,1.34,7.05,3.24,9.73,5.71c2.66,2.46,2.46,4.56-0.59,6.28c-3.04,1.7-7.05,6.73-11.99,15.1
	c6.48,6.06,6.19,8.91-0.86,8.52c-7.05-0.36-20.85,0.39-41.43,2.3c-1.9,5.3-3.54,6.53-4.86,3.68c-1.34-2.84-2.58-8.08-3.73-15.65
	c-1.15-7.61-2.76-12.93-4.86-15.97c-2.1-3.05-2.4-4.55-0.85-4.55c1.9,0,3.81,0.2,5.71,0.56c1.9,0.4,3.43,0.59,4.58,0.59
	c1.51,0,5.51-0.19,12-0.59l4.56-22.21c-11.05,1.52-18.29,2.47-21.71,2.86c-3.43,0.37-7.05-0.39-10.87-2.28
	c-8.76,23.56-18.85,39.39-30.29,47.57c-11.41,8.16-14,8.92-7.71,2.29c6.29-6.67,12.49-14.84,18.59-24.51
	C1325.97,532.6,1330.72,520.94,1334.16,507.25z M1387.89,478.2c1.52-6.46,2.37-10.72,2.56-12.8c0.2-2.08-0.85-3.14-3.15-3.14
	c-1.9,0-5.71,0.3-11.44,0.85c-5.71,0.56-14.46,1.61-26.28,3.14c-0.36,6.45-1.15,12.34-2.27,17.64
	C1355.67,483.54,1369.21,481.63,1387.89,478.2z M1357.02,544.29c0.39,7.23,1.15,14.05,2.29,20.51c13.71-1.14,25.7-2.48,36-4
	c1.15-5.69,1.9-10.34,2.29-13.97c0.39-3.58-0.1-5.58-1.44-5.97c-1.32-0.36-5.22-0.29-11.71,0.31
	C1377.96,541.71,1368.82,542.77,1357.02,544.29z M1263.21,573.34c-7.43,0.4-14.48,0.4-21.14,0c-6.68-0.38-12.29-3.99-16.88-10.81
	c-4.56-6.83-11.05-15.38-19.44-25.64c-3.81,12.9-9.42,21.92-16.86,27.06c-7.43,5.13-15.23,8.25-23.43,9.39
	c-8.19,1.15-8,0.11,0.58-3.12c8.57-3.24,15.61-7.88,21.15-13.96c5.51-6.07,9.24-13.49,11.14-22.21
	c-15.99,2.28-26.29,3.79-30.87,4.53c-4.56,0.78-9.05-0.17-13.45-2.83c-4.36-2.66-4.26-3.89,0.3-3.69c4.59,0.18,10.95,0,19.15-0.59
	c8.19-0.55,16.69-1.41,25.43-2.55c0.76-5.32,0.49-9.31-0.85-11.96c-1.35-2.66-0.47-3.42,2.59-2.28c1.9,0.39,3.41,0.95,4.56,1.71
	c-0.4-0.37-0.95-1.15-1.7-2.26c-1.91-3.04-2.49-5.91-1.74-8.56c0.78-2.65,1.35-6.46,1.74-11.4c-4.59,6.09-9.64,11.59-15.15,16.54
	c-5.53,4.92-11.25,8.55-17.17,10.8c-5.9,2.29-6.09,1.43-0.55-2.54c5.53-3.99,10.38-8.26,14.58-12.84c4.2-4.55,8.19-9.68,12-15.36
	c-6.86,0.74-11.9,1.31-15.15,1.69c-3.24,0.4-6.29-0.48-9.14-2.55c-2.86-2.09-1.8-3.12,3.14-3.12c4.96,0,14.11-0.78,27.45-2.29
	c0.36-16.72-0.69-26.79-3.15-30.19c-2.49-3.42,0.09-3.98,7.7-1.73c4.58,2.68,6.01,5.14,4.3,7.43c-1.71,2.29-2.76,10.26-3.15,23.91
	c8.39-1.12,14.69-2.09,18.88-2.84c4.17-0.76,7.61,0,10.27,2.28c2.68,2.29,0.95,3.6-5.15,3.99c-6.1,0.4-14.09,0.95-24,1.71v6.26
	c12.19,1.89,20.59,4.67,25.14,8.28c4.58,3.59,6.58,7.01,6,10.25c-0.56,3.23-3.41,2.93-8.56-0.85c-5.15-3.82-12.68-8.91-22.58-15.4
	v9.12c0,2.65-0.4,5.33-1.15,7.97c-0.36,1.15-0.76,1.9-1.15,2.28l0.59,0.58c1.52,0.74,1.91,1.98,1.15,3.71
	c-0.78,1.69-1.35,4.09-1.73,7.12c8-0.39,16.2-1.04,24.58-1.99c8.39-0.97,14.88-1.72,19.45-2.3c4.58-0.57,8.58,0.58,12,3.41
	c3.43,2.87,2.85,4.29-1.72,4.29h-23.44c-5.7,0-15.63,0.38-29.73,1.13c11.05,13.69,21.35,22.87,30.88,27.64
	c9.52,4.74,17.8,7.97,24.86,9.68C1270.83,571.93,1270.66,572.96,1263.21,573.34z M1226.93,471.93c-4.19,2.67-8.1,4.84-11.72,6.58
	c-3.62,1.69-3.81,1.03-0.57-2.01c3.25-3.03,5.91-5.87,8-8.56c2.1-2.64,2.85-5.39,2.29-8.26c-0.59-2.84,2.76-2.93,10-0.26
	c5.71,3.78,6.86,6.16,3.41,7.12C1234.93,467.48,1231.12,469.29,1226.93,471.93z M1185.2,467.4c3.42,0.36,6.2,1.6,8.29,3.7
	c2.07,2.07,2.56,4.37,1.41,6.82c-1.15,2.48-3.81,2.17-8-0.84c-2.28-3.06-4-5.5-5.15-7.43
	C1180.62,467.76,1181.76,466.99,1185.2,467.4z M1158.45,99.3c-5.95-26.26-22.3-35.94-36.4-30.14
	c-24.93,10.25-28.63,60.51-28.63,82.94c0.44,35.65,3.3,81.51,37.81,84.59c11.69,1.04,24.25-4.44,31.59-18.32V192.8h-31.94v-62.37
	h78.71v122.28c-41.23,70-127.64,70.35-154.53-12.47c-8.02-24.74-11.6-55.1-11.6-88.15c-0.89-86.01,27.64-150.95,88.5-152.08
	c42.92-0.8,65.75,28.2,77.86,83.37C1191.49,88.67,1183.01,90.76,1158.45,99.3z M1049.94,472.24c-1.9,2.08-3.9,5.51-6.01,10.25
	c-2.09,4.73-4.26,9.76-6.56,15.08c6.47,7.99,14.66,16.81,24.58,26.49c9.91,9.68,18,16.34,24.29,19.95
	c6.26,3.62,13.24,6.66,20.86,9.11c7.62,2.48,7.43,4.18-0.57,5.12c-8,0.94-14.78,1.16-20.29,0.56c-5.53-0.56-9.73-2.84-12.59-6.83
	c-2.85-3.98-8.29-11.21-16.28-21.63c-8-10.46-15.24-20.42-21.73-29.93c-6.85,11.76-13.14,21.56-18.85,29.33
	c-5.71,7.78-11.34,13.96-16.85,18.53c-5.53,4.54-11.34,7.96-17.45,10.25c-6.09,2.27-5.72,0.87,1.15-4.27
	c6.86-5.13,13.7-11.86,20.56-20.22c6.88-8.37,12.98-17.78,18.3-28.2c5.34-10.45,9.14-18.98,11.43-25.65
	c2.3-6.63,2.76-12.05,1.44-16.22c-1.34-4.18,0.11-5.33,4.3-3.44c4.17,1.92,7.41,3.82,9.71,5.72
	C1051.68,468.14,1051.87,470.14,1049.94,472.24z M909.74,139.08l0.88,159.81h-52.23V4.99h54.01l58.06,161.78L969.58,4.99h52.31
	v293.9h-49.85L909.74,139.08z M869.84,461.12c1.34,2.64,1.54,4.73,0.58,6.26c-0.95,1.52-2.39,1.92-4.28,1.16
	c-1.91-0.78-4.2-2.1-6.86-3.99c-2.29-2.29-3.92-4.47-4.87-6.57c-0.96-2.08,1.04-2.74,6.02-1.98
	C865.37,456.74,868.52,458.46,869.84,461.12z M902.72,459.98c-4.2,2.65-8.49,5.23-12.85,7.69c-4.39,2.47-5.06,2.18-2-0.86
	c3.05-3.05,5.9-6.35,8.56-9.97c2.66-3.59,3.9-6.54,3.71-8.82c-0.17-2.28,1.24-2.67,4.29-1.14c3.05,1.14,5.63,2.64,7.73,4.54
	c2.1,1.92,2.1,3.14,0,3.73C910.05,455.7,906.91,457.33,902.72,459.98z M855.84,516.1c3.44,0.95,5.8,2.45,7.15,4.54
	c1.34,2.09,1.51,4.28,0.55,6.57c-0.95,2.26-2.76,2.26-5.42,0c-2.68-2.29-4.58-4.94-5.72-7.97
	C851.28,516.19,852.4,515.16,855.84,516.1z M870.13,475.06c5.71-0.94,10.85-1.79,15.44-2.55l14.29-2.85
	c4.95-1.12,8.57-0.76,10.85,1.13c2.29,1.9,1.54,3.33-2.29,4.27c-3.81,0.96-8.19,1.81-13.15,2.59c-4.96,0.74-8.56,1.31-10.85,1.69
	c2.3,1.15,3.25,2.29,2.86,3.43c-0.39,1.12-0.56,2.84-0.56,5.11c4.56-0.75,8.26-1.53,11.14-2.27c2.86-0.78,5.51-0.29,8,1.4
	c2.46,1.73,2.37,3.05-0.29,3.99c-2.66,0.96-5.44,1.53-8.29,1.73c-2.85,0.21-6.56,0.65-11.14,1.41c-0.36,4.58-0.56,7.61-0.56,9.12
	c2.3-0.37,4.95-0.76,8-1.15l9.71-1.7c3.44-0.76,6.29-0.2,8.57,1.7c2.3,1.92,2,3.14-0.85,3.72c-2.85,0.56-11.34,1.61-25.43,3.14
	c-0.39,7.21-0.59,13.46-0.59,18.79c1.91,0,5.73-0.39,11.44-1.15c3.81-7.59,5.44-12.51,4.85-14.8c-0.55-2.29,0.59-3.15,3.44-2.57
	c2.85,0.58,5.24,1.52,7.14,2.86c1.91,1.32,1.81,2.55-0.29,3.69c-2.1,1.15-5.8,4.54-11.14,10.26c9.14-1.14,17.54-2.09,25.14-2.83
	c7.64-0.78,12.79-0.78,15.45,0c2.68,0.74,4.85,1.99,6.58,3.68c1.7,1.7,1.9,2.85,0.56,3.44c-1.34,0.56-5.72,0.56-13.14,0
	c-7.44-0.59-17.64-0.3-30.59,0.84c-12.95,1.15-23.7,2.26-32.29,3.4c-8.58,1.15-15.8,2.19-21.73,3.13
	c-5.9,0.96-10.85,1.81-14.85,2.58c-4,0.76-8.19-0.1-12.58-2.58c-4.36-2.45-3.91-3.78,1.45-3.98c5.34-0.19,12.38-0.74,21.14-1.69
	c8.78-0.96,19.83-2.2,33.17-3.7v-17.67c-8.39,1.14-14.03,1.9-16.88,2.29c-2.86,0.36-5.91-0.39-9.15-2.29
	c-3.25-1.89-3.51-2.85-0.85-2.85c3.05,0,6.29-0.19,9.71-0.58c3.44-0.36,9.14-1.31,17.17-2.84v-9.11c-4.98,0.74-8.49,1.34-10.59,1.7
	c-2.1,0.38-4.76-0.28-8-1.99c-3.24-1.71-3.05-2.66,0.57-2.86c3.63-0.18,6.19-0.36,7.72-0.55c1.51-0.2,4.96-0.87,10.3-2.01
	c0-3.78-0.4-6.82-1.15-9.1c-4.59,0.36-8.88,0.84-12.88,1.4c-4,0.59-7.62-0.08-10.85-1.98c-3.25-1.9-2.76-2.94,1.44-3.14
	C859.46,476.61,864.42,476.02,870.13,475.06z M745.24,302.81c-60.52-0.55-85.65-67.77-85.65-150.87S687.61,2.18,745.24,1.07
	c57.62-1.12,85.65,67.78,85.65,150.88S805.76,303.38,745.24,302.81z M745.24,69.32c-22.84,0.6-35.6,37.11-35.6,82.62
	s10.97,82.32,35.6,82.61c24.62,0.31,35.59-37.11,35.59-82.61S768.07,68.7,745.24,69.32z M525.5,4.95H580v226.02h77.28v67.95H525.5
	V4.95z M569.35,464.54c8.79-1.52,14.49-3.03,17.15-4.56c2.68-1.5,5.73-1.04,9.15,1.43c3.43,2.46,5.9,4.83,7.43,7.12
	c1.51,2.26,0.66,3.8-2.58,4.54c-3.22,0.77-8.17,3.25-14.85,7.43c-6.66,4.17-13.44,9.12-20.3,14.8c4.96,2.28,6.86,4.27,5.71,5.97
	c-1.12,1.73-1.9,5.23-2.26,10.55c-0.39,5.32-0.3,12.91,0.26,22.77c0.59,9.9,0.78,17.19,0.59,21.96c-0.19,4.73-2.2,9.76-6,15.09
	c-3.81,5.32-6.79,5.99-8.88,1.99c-2.07-3.98-5.42-7.89-10-11.7c-4.57-3.78-4.66-5.02-0.27-3.68c4.36,1.33,7.81,1.79,10.27,1.43
	c2.49-0.39,4.02-2.1,4.58-5.13c0.56-3.03,0.95-9.96,1.15-20.81c0.19-10.81-0.11-19.27-0.86-25.35c-0.78-6.08-2.19-10.36-4.3-12.81
	c-2.09-2.47-2.19-3.61-0.28-3.43c1.9,0.2,4.39,0.69,7.43,1.44c9.9-9.51,16.65-16.53,20.3-21.08c3.6-4.56,1.5-6.16-6.29-4.85
	c-7.81,1.34-16.49,2.97-26,4.85c-9.53,1.9-15.63,3.41-18.29,4.55c-2.68,1.14-5.44,1.14-8.29,0c-2.85-1.14-5.34-2.73-7.44-4.83
	c-2.09-2.09-0.94-3.04,3.44-2.85c4.36,0.19,11.52-0.19,21.44-1.14C551.26,467.3,560.6,466.06,569.35,464.54z M446.12,506.99
	c-0.76,5.12-1.61,11.1-2.56,17.93c-0.97,6.83-2.97,15.01-6.03,24.5c-3.05,9.49-7.05,16.33-11.99,20.49c-4.95,4.19-8,4.37-9.14,0.59
	c-1.15-3.8-4.36-7.69-9.71-11.7c-5.34-3.98-5.53-5.2-0.59-3.69c4.97,1.54,9.05,2.47,12.29,2.84c3.25,0.39,6.1-1.99,8.58-7.12
	c2.47-5.13,4.47-11.76,6-19.93c1.51-8.18,2.56-16.44,3.16-24.79c0.55-8.33-1.15-12.42-5.15-12.23c-4,0.17-14.58,1.8-31.73,4.84
	c-6.46,16.32-13.61,29.14-21.44,38.44c-7.8,9.31-16.29,15.95-25.43,19.93c-9.15,3.98-9.62,2.94-1.42-3.14
	c8.19-6.07,15.41-13.39,21.7-21.92c6.29-8.56,11.93-19.08,16.88-31.63c-12.98,2.64-21.06,4.38-24.29,5.14
	c-3.25,0.74-6.39-0.3-9.44-3.15c-3.05-2.84-2-4.16,3.15-3.98c5.15,0.19,16.09-1.05,32.85-3.69c3.05-8.37,5.34-16.33,6.88-23.95
	c1.51-7.58,1.7-13,0.55-16.24c-1.15-3.21-0.19-4.44,2.86-3.68c3.04,0.75,6.1,2.18,9.14,4.28c3.05,2.08,3.44,4.64,1.15,7.67
	c-2.3,3.03-5.9,13.29-10.85,30.77c16.39-3.04,26-5.42,28.85-7.12c2.87-1.7,5.92-1.89,9.14-0.57c3.25,1.32,6.2,2.95,8.89,4.85
	c2.66,1.89,3.15,3.8,1.41,5.68C448.12,498.33,446.87,501.86,446.12,506.99z M374.1,465.95c5.71,2.85,9.05,6.29,10,10.27
	c0.95,3.97,0.56,6.83-1.15,8.55c-1.71,1.7-4,0.85-6.85-2.58c-2.86-3.42-5.44-7.59-7.71-12.53
	C366.47,464.35,368.39,463.12,374.1,465.95z M328.02,139.08l0.88,159.81h-52.23V4.99h54.01l58.06,161.78L387.85,4.99h52.31v293.9
	h-49.85L328.02,139.08z M287.16,483.33c3.24,1.16,6.29,2.85,9.14,5.13c2.86,2.29,3.35,4.38,1.45,6.28c-1.9,1.9-3.44,6.44-4.58,13.65
	c-1.15,7.23-2.2,13.95-3.15,20.22c-0.95,6.27-2.76,12.45-5.42,18.53c-2.68,6.08-6.48,11.01-11.43,14.8c-4.96,3.81-7.63,3.62-8-0.56
	c-0.38-4.18-2.19-8.26-5.44-12.26c-3.25-3.98-3.51-5.42-0.86-4.27c2.66,1.14,5.62,1.98,8.86,2.58c3.25,0.55,5.81-0.78,7.74-3.99
	c1.9-3.23,3.6-7.96,5.15-14.24c1.51-6.27,2.75-13.3,3.7-21.07c0.95-7.79,1.14-12.55,0.56-14.24c-0.56-1.73-2-2.58-4.26-2.58
	c-2.3,0-8.78,1.13-19.45,3.43c3.81,2.64,4.75,4.92,2.86,6.82c-1.9,1.9-4.39,6.93-7.44,15.1c-3.05,8.16-7.52,15.94-13.44,23.35
	c-5.9,7.42-13.04,13.11-21.43,17.09c-8.38,3.98-8.38,2.59,0-4.29c8.38-6.82,15.62-15.65,21.73-26.46
	c6.1-10.85,9.53-20.81,10.29-29.94c-3.44,1.15-5.91,1.82-7.44,2.01c-1.51,0.19-3.61-0.65-6.29-2.55c-2.66-1.92-2.07-2.94,1.74-3.13
	c3.79-0.2,8.29-0.78,13.43-1.73c5.12-0.94,9.9-2.09,14.27-3.4c4.39-1.33,7.63-2.67,9.73-3.99
	C281.25,482.28,283.91,482.19,287.16,483.33z M184.39,4.99h55.18v293.9h-55.18C184.19,200.8,184.39,101.76,184.39,4.99z
	 M202.56,472.51c-0.56-7.2-2-12.43-4.27-15.67c-2.29-3.23-0.1-3.88,6.56-2c6.67,1.9,9.43,4.29,8.29,7.13
	c-1.14,2.84-1.9,7.03-2.29,12.54c-0.36,5.49-0.76,12.42-1.15,20.79c4.96-1.51,9.05-3.05,12.28-4.55c3.25-1.53,6.59-1.34,10,0.56
	c3.44,1.91,2.2,3.78-3.71,5.69c-5.9,1.92-12.09,3.81-18.58,5.71c-0.37,12.15-0.76,21.08-1.15,26.76c5.34-2.66,10.88-5.6,16.58-8.83
	c5.71-3.24,6.49-2.83,2.3,1.15c-4.2,3.99-9.24,8.82-15.15,14.52c-5.9,5.7-10.09,10.34-12.58,13.96c-2.46,3.59-4.76,3.33-6.85-0.84
	c-2.11-4.19-2.2-7.23-0.3-9.13c1.9-1.89,3.71-4.27,5.44-7.11c1.7-2.84,3.05-6.28,4-10.26c0.95-3.98,1.41-10.16,1.41-18.52
	c-9.15,2.28-15.05,3.53-17.71,3.72c-2.65,0.17-5.34-0.59-8-2.29c-2.68-1.73-1.73-2.84,2.85-3.43c4.56-0.55,12.19-2.38,22.86-5.41
	C203.41,487.89,203.13,479.74,202.56,472.51z M170.22,299.13h-60.44L76.4,180.74l-24.81,45.89v72.26H0V4.99h51.59v110.03L106.8,5.22
	l64.64-0.47l-58.25,111.78L170.22,299.13z M19.3,512.97c4,0.36,11.63,0.1,22.87-0.86c11.25-0.95,23.15-2.38,35.73-4.28
	c12.56-1.89,23.8-3.72,33.7-5.42c9.93-1.7,17.74-1.14,23.44,1.7c5.72,2.87,8.29,5.24,7.72,7.12c-0.58,1.92-3.24,2.68-8,2.3
	c-4.78-0.37-11.92-0.56-21.44-0.56c-9.53,0-19.73,0.46-30.58,1.41c-10.89,0.93-20.02,2.09-27.44,3.42
	c-7.43,1.33-13.73,2.55-18.88,3.69c-5.15,1.14-10.37,0-15.7-3.4C15.79,514.28,15.3,512.57,19.3,512.97z M405.83,516.94
	c5.51,0.76,9.41,2.85,11.71,6.28c2.3,3.41,2.75,6.73,1.44,9.97c-1.35,3.22-3.73,3.3-7.15,0.26l-7.43-7.96
	c-1.51-1.9-3.04-3.99-4.55-6.24C398.3,516.94,400.3,516.2,405.83,516.94z M669.15,545.14c1.15-3.23,1.82-8.82,1.99-16.79
	c0.21-8-0.84-13.2-3.14-15.68c-2.27-2.48-2.36-3.81-0.27-4c2.1-0.19,4-0.08,5.71,0.3c1.7,0.36,4.76,0,9.14-1.15
	c4.39-1.14,8.49-2.67,12.3-4.56c1.53-7.98,2.39-13.66,2.55-17.09c0.2-3.4-0.65-5.04-2.55-4.84c-1.91,0.2-5.25,1.32-10,3.43
	c-4.76,2.09-9.05,2.09-12.85,0c-3.83-2.11-3.44-3.33,1.12-3.72c4.59-0.36,9.25-1.31,14.03-2.85c4.75-1.51,8.19-3.13,10.26-4.82
	c2.1-1.71,4.3-2.2,6.58-1.45c2.3,0.76,4.96,1.9,8,3.43c3.06,1.51,2.96,3.59-0.28,6.27c-3.23,2.65-6.77,9.49-10.57,20.49
	c2.29,4.17,1.7,6.56-1.71,7.13c-3.44,0.59-10.87,2.18-22.32,4.86c0.78,3.79,1.06,7.68,0.88,11.66c-0.19,3.98-0.59,8.46-1.15,13.4
	c-0.59,4.94,0.86,6.27,4.3,3.98c3.41-2.29,7.42-5.04,11.99-8.27c4.57-3.23,6-3.49,4.27-0.84c-1.7,2.64-5.9,7.5-12.56,14.53
	c-6.68,7.03-10.85,12.06-12.59,15.09c-1.71,3.04-3.6,2.65-5.71-1.14c-2.09-3.79-2.49-6.83-1.15-9.12
	C666.78,551.14,668,548.37,669.15,545.14z M698.88,555.97c6.48-1.7,12.28-3.9,17.43-6.54c5.15-2.68,10.19-6.67,15.15-11.95
	c-8-13.69-14.49-22.05-19.45-25.09c-4.94-3.04-5.7-4.55-2.28-4.55c3.82,0,7.43,1.9,10.87,5.69c3.41,3.79,8,9.32,13.7,16.53
	c1.54-5.33,2.49-10.55,2.86-15.67c0.39-5.13-0.17-9.78-1.71-13.96c-3.44,0.39-5.91,0.59-7.44,0.59c-1.51,0-3.61-0.21-6.26-0.59
	c-3.06,2.29-5.34,3.53-6.87,3.69c-1.52,0.2-0.37-2.35,3.43-7.68c3.81-5.31,7.15-12.15,10-20.51c2.85-8.33,3.54-14.14,2-17.38
	c-1.51-3.21-0.56-4.44,2.85-3.69c3.44,0.74,6.68,2.09,9.73,3.99c3.06,1.89,3.25,4.18,0.57,6.82c-2.66,2.68-5.72,7.23-9.15,13.69
	c-3.41,6.47-7.05,12.54-10.85,18.22c8-1.88,14.48-3.68,19.43-5.42c4.96-1.7,9.52-3.4,13.7-5.13c4.2-1.69,8-1.69,11.45,0
	c3.44,1.73,2.29,3.73-3.44,5.98c-5.71,2.29-13.14,4.38-22.29,6.27c4.58,2.68,6.39,4.94,5.44,6.84c-0.95,1.92-1.71,5.23-2.29,9.98
	c-0.57,4.75-2.2,11.87-4.86,21.38c6.48,6.43,12.48,11.27,17.99,14.51c5.53,3.24,12.2,5.61,20.02,7.12c7.81,1.54,10.2,2.85,7.15,4
	c-3.05,1.12-8.49,2.09-16.29,2.84c-7.83,0.77-13.08-0.08-15.74-2.56c-2.66-2.48-8.56-9.01-17.7-19.66
	c-6.88,6.07-13.44,9.99-19.73,11.69c-6.29,1.7-12.38,2.64-18.28,2.84C692.12,558.44,692.39,557.68,698.88,555.97z M850.69,545.99
	c2.3,0,4.3,0.2,6,0.59c1.71,0.37,3.73,0.55,6.01,0.55c2.68,0,7.15-0.48,13.43-1.43c6.29-0.95,11.34-1.8,15.15-2.55
	c3.81-0.75,6.58-1.43,8.29-1.98c1.7-0.59,4.29-0.31,7.71,0.84c3.44,1.14,6.29,2.64,8.58,4.57c2.29,1.89,2.29,3.69,0,5.39
	c-2.29,1.73-5.71,5.78-10.29,12.24c5.34,5.34,5.25,7.88-0.29,7.72c-5.52-0.19-12.66,0-21.44,0.56c-8.76,0.55-15.6,1.04-20.56,1.43
	c-1.54,4.93-2.94,5.99-4.29,3.11c-1.34-2.84-2.59-7.48-3.71-13.95c-1.15-6.43-2.68-10.91-4.58-13.39
	C848.78,547.24,848.78,545.99,850.69,545.99z M863.27,569.36c9.52-0.75,21.54-1.9,36-3.42c1.15-6.45,1.9-10.92,2.3-13.37
	c0.39-2.48-0.4-3.92-2.3-4.29c-1.9-0.38-5.61-0.29-11.14,0.3c-5.51,0.55-14.39,1.79-26.58,3.7
	C862.33,557.59,862.89,563.28,863.27,569.36z M1478.84,504.41c5.9-7.97,11.14-16.71,15.7-26.21c4.58-9.5,6.48-15.94,5.71-19.36
	c-0.75-3.41,0.39-4.55,3.44-3.41c3.05,1.12,5.71,2.94,8,5.39c2.29,2.49,2.58,4.29,0.85,5.42c-1.71,1.14-4.47,5.03-8.27,11.68
	c-3.83,6.65-7.83,13.59-12.03,20.8c3.83,2.64,5.93,4.83,6.29,6.54c0.39,1.73,0.39,4.08,0,7.12c-0.36,3.04-0.66,8.26-0.85,15.68
	c-0.2,7.42-0.3,15.09-0.3,23.06c0,7.61-0.75,13.3-2.26,17.08c-1.54,3.8-3.35,3.44-5.44-1.14c-2.1-4.54-2.59-8.72-1.44-12.51
	c1.15-3.82,2-9.7,2.59-17.67c0.56-7.98,0.95-15,1.15-21.08c0.17-6.07-0.69-10.44-2.59-13.09c-3.81,4.54-7.81,8.91-12,13.09
	c-4.2,4.19-8.58,7.43-13.14,9.68c-4.58,2.28-4.76,1.34-0.59-2.85C1467.86,518.46,1472.91,512.38,1478.84,504.41z M1682.08,529.47
	c5.91-7.19,11.71-15.76,17.45-25.62c-0.76-1.53-1.64-3.14-2.59-4.83c-0.94-1.73,0.86-2.02,5.44-0.88c1.51-2.26,3.24-5.49,5.15-9.67
	c1.9-4.18,2.47-7.97,1.71-11.39c-12.56,2.29-20.59,3.79-24.01,4.56c-3.43,0.77-7.05-0.09-10.85-2.57c-3.83-2.46-2.98-3.79,2.56-3.99
	c5.53-0.2,12.68-0.95,21.44-2.28c8.75-1.31,15.7-2.55,20.85-3.7c5.15-1.15,9.34-2.18,12.58-3.14c3.25-0.94,6.01-1.05,8.29-0.29
	c2.3,0.78,4.3,2.28,6.01,4.58c1.7,2.29,0.55,3.5-3.44,3.69c-4,0.19-8.66,0.48-14,0.86c-5.34,0.38-10.85,0.94-16.58,1.71
	c7.24,5.3,9.92,8.73,8.02,10.27c-1.92,1.5-6.09,7.58-12.58,18.23v47.82c0,7.23-0.76,12.75-2.29,16.53c-1.51,3.8-3.25,3.05-5.15-2.27
	c-1.9-5.29-2.19-10.54-0.85-15.65c1.35-5.14,2-17.2,2-36.21c-3.05,6.08-8.1,12.74-15.14,19.95c-7.05,7.23-14.29,12.82-21.73,16.8
	c-7.41,3.99-7.81,3.04-1.15-2.85C1669.89,543.26,1676.18,536.68,1682.08,529.47z M1723.23,517.51c8.57,3.04,14.68,6.36,18.28,9.96
	c3.63,3.63,5.44,7.91,5.44,12.83c0,4.55-1.61,5.69-4.85,3.4c-3.25-2.26-7.25-5.87-12-10.81c-4.78-4.93-9.24-9.51-13.43-13.65
	C1712.48,515.05,1714.68,514.46,1723.23,517.51z M1786.47,539.73c4-0.36,10.95-3.79,20.85-10.26v-26.19
	c-3.8,1.14-7.05,1.71-9.7,1.71c-2.3,0-4.3-0.87-6.01-2.57c-1.73-1.69-0.97-2.84,2.26-3.4c3.25-0.59,7.73-1.64,13.44-3.14
	c0-6.86-0.39-13.2-1.14-19.11c-0.76-5.89-1.91-10.42-3.42-13.65c-1.54-3.24,0.56-3.9,6.27-1.99c5.72,2.27,8.02,4.54,6.87,6.82
	c-1.15,2.28-1.73,11.01-1.73,26.2c1.9-0.75,4.2-1.61,6.87-2.54c2.66-0.96,4.96-0.76,6.86,0.55c1.9,1.34,1.51,2.68-1.15,4
	c-2.66,1.33-6.85,2.94-12.58,4.86l-0.56,25.05c6.48-4.18,11.44-6.82,14.85-7.96c3.44-1.15,4.49-1.05,3.15,0.26
	c-1.35,1.35-3.71,3.44-7.15,6.28c-3.41,2.83-8.65,6.93-15.7,12.25c-7.05,5.32-11.34,9.01-12.88,11.1c-1.51,2.1-4.46,1.35-8.85-2.28
	C1782.64,542.1,1782.47,540.11,1786.47,539.73z M1857.63,482.19c1.51,1.9,1.81,4.09,0.85,6.58c-0.95,2.44-2.58,2.44-4.85,0
	c-2.3-2.49-4.2-5.03-5.73-7.72c-1.51-2.64-0.66-3.59,2.59-2.84C1853.7,478.96,1856.1,480.3,1857.63,482.19z M1866.49,459.98
	c-3.25-1.5-6.29-3.5-9.15-5.98c-2.85-2.48-2.85-3.89,0-4.28c2.86-0.36,5.62-0.2,8.29,0.59c3.05,0.74,5.25,2.09,6.56,3.98
	c1.35,1.91,1.54,3.7,0.59,5.39C1871.82,461.41,1869.73,461.51,1866.49,459.98z M1902.77,485.62c3.06,1.52,4.2,2.84,3.44,4
	c-0.76,1.14-3.34,1.79-7.73,1.99c-4.37,0.19-11.05,1.04-20,2.54c-8.95,1.53-16.76,2.94-23.44,4.28c-6.66,1.35-11.24,2.29-13.71,2.84
	c-2.48,0.59-5.24-0.19-8.29-2.26c-3.06-2.1-2.78-3.24,0.85-3.44c3.61-0.19,8.1-0.65,13.44-1.43c5.31-0.75,11.24-1.89,17.71-3.4
	c4.2-7.23,6.1-13.7,5.73-19.38c-8.39,1.5-13.75,2.65-16.03,3.41c-2.27,0.77-5.15,0.19-8.57-1.72c-3.44-1.89-3.34-3.04,0.29-3.41
	c3.62-0.36,9.62-1.52,18-3.42c8.39-1.89,14.1-3.41,17.15-4.56c3.05-1.15,5.9-0.86,8.58,0.88c2.66,1.7,2,3.11-2.02,4.25
	c-4,1.14-8.27,2.28-12.85,3.42c5.73,3.05,7.53,5.43,5.44,7.12c-2.09,1.69-6.39,6.18-12.88,13.41c12.98-3.06,21.28-5.04,24.89-5.99
	C1896.38,483.82,1899.73,484.09,1902.77,485.62z M1841.34,554.55c6.67-6.46,9.62-11.4,8.86-14.83c-1.54,1.53-3.15-1.5-4.86-9.11
	c-1.73-7.58-3.83-12.71-6.29-15.38c-2.49-2.65-2.86-4.06-1.15-4.26c1.7-0.2,3.7-0.2,6,0c2.29,0.21,6.09-0.38,11.43-1.72
	c5.34-1.31,9.81-2.56,13.44-3.69c3.61-1.15,6.46-2.29,8.56-3.44c2.11-1.12,4.49-1.21,7.15-0.26c2.68,0.95,5.15,2.26,7.43,3.98
	c2.29,1.69,2.56,3.41,0.86,5.13c-1.72,1.7-3.44,5.03-5.15,9.97c-1.72,4.94-3.62,9.47-5.72,13.65c-2.09,4.18-3.9,3.98-5.44-0.55
	c-3.81,0.74-7.44,1.5-10.85,2.27c1.9,0.38,3.81,1.15,5.71,2.26c1.9,1.15,2.39,2.29,1.45,3.44c-0.96,1.14-1.74,4.08-2.3,8.82
	c-0.59,4.76,0,8.16,1.7,10.25c1.74,2.09,4.49,3.43,8.29,3.99c3.81,0.59,8.1,0.78,12.85,0.59c4.78-0.19,8.19-1.34,10.29-3.43
	c2.1-2.08,3.73-7.4,4.88-15.95c1.12-8.56,2-8.45,2.56,0.3c0.55,8.73,1.7,14.51,3.44,17.36c1.71,2.87-0.29,5.23-6,7.12
	c-5.74,1.9-12.89,2.67-21.44,2.29c-8.58-0.39-14.48-2.38-17.73-5.98c-3.24-3.6-4.56-9.11-4-16.53c0.55-7.39,0.29-11.87-0.86-13.37
	l-0.59-0.58c-4.16,0.75-7.99,1.53-11.41,2.29c2.27,1.5,4.09,2.93,5.42,4.27c1.33,1.31,1.04,3.03-0.87,5.13
	c-1.89,2.1-6.28,6.07-13.13,11.96c-6.86,5.88-14,9.66-21.44,11.4c-7.43,1.7-7.8,0.84-1.14-2.58
	C1828,565.93,1834.65,561,1841.34,554.55z M1867.34,530.9c3.44-0.95,6.66-1.05,9.71-0.29c1.54-5.3,2.4-10.27,2.59-14.81
	c0.2-4.57-0.65-6.92-2.59-7.13c-1.9-0.18-5.51,0.4-10.85,1.72c-5.34,1.33-11.24,2.58-17.71,3.72l1.13,8.52
	c4.97-1.89,9.43-3.4,13.43-4.53c4-1.15,6.29-0.85,6.86,0.85c0.59,1.69-1.61,3.32-6.56,4.83c-4.95,1.54-9.34,2.28-13.14,2.28
	l1.14,8.53C1858.58,533.09,1863.89,531.85,1867.34,530.9z"/>
</svg>
