<?xml version="1.0" encoding="UTF-8"?>
<svg xmlns="http://www.w3.org/2000/svg" xmlns:xlink="http://www.w3.org/1999/xlink" xmlns:xodm="http://www.corel.com/coreldraw/odm/2003" xml:space="preserve" width="79.3767mm" height="9.9005mm" version="1.1" style="shape-rendering:geometricPrecision; text-rendering:geometricPrecision; image-rendering:optimizeQuality; fill-rule:evenodd; clip-rule:evenodd" viewBox="0 0 4501.69 561.49">
 <defs>
  <style type="text/css">
   
    .fil1 {fill:#D2D2D3;fill-rule:nonzero}
    .fil8 {fill:#D6878A;fill-rule:nonzero}
    .fil4 {fill:#A1A7BE;fill-rule:nonzero}
    .fil6 {fill:#7F8AAB;fill-rule:nonzero}
    .fil2 {fill:#7480A6;fill-rule:nonzero}
    .fil3 {fill:#5D6C9B;fill-rule:nonzero}
    .fil5 {fill:#4E6297;fill-rule:nonzero}
    .fil0 {fill:#25498B;fill-rule:nonzero}
    .fil7 {fill:#989DC3;fill-rule:nonzero}
   
  </style>
 </defs>
 <g id="Livello_x0020_1">
  <metadata id="CorelCorpID_0Corel-Layer"></metadata>
  <g id="_1717613317696">
   <path class="fil0" d="M4498.64 254.55c-0.05,-18.93 -4.61,-53.62 -43.49,-53.62l-191.76 0 0 36.63 186.88 0c9.79,0 17.27,1.96 17.27,15.69l0 55.59 31.1 0 0 -54.29z"></path>
   <path class="fil0" d="M3103.79 0.01l-1.67 0.06c-15.68,1.39 -38.98,15.52 -38.98,48.56l0 80.83c0,27.14 17.01,42.72 46.66,42.72l215.22 0c4.64,0 10.67,1.3 10.67,9.19l0 3.94 0 82.78c0,1.83 -3.37,3.96 -8.01,3.96l-226.48 0c-2.42,-1.78 -5.68,-9.75 -5.68,-18.91 0,-3.12 0.37,-6.38 1.28,-9.55 2.25,-7.68 5.48,-7.68 7,-7.68l192 0 0 -36.8 -192 0c-15.01,0 -27.84,6.9 -36.11,19.48 -6.07,9.27 -9.44,21.52 -9.44,34.57 0,31.74 18.16,55.68 42.23,55.68l227.22 0c28.4,0 45.32,-15.21 45.32,-40.75l0 -86.72c0,-17.18 0,-46.02 -38.65,-46.02l-224.55 0c-6.56,0 -9.33,-2.97 -9.33,-5.9l0 -80.83c0,-4.84 1.02,-10.68 5.44,-11.82l226.44 0c9.38,0 9.84,12.22 9.84,14.68 0,0.16 -0.11,15.55 -9.84,15.55l-199.24 0 0 36.8 199.24 0c26.89,0 47.16,-22.52 47.16,-52.34 0,-29.84 -19.83,-51.47 -47.16,-51.47l-228.56 0z"></path>
   <path class="fil0" d="M2491.7 308.71l0 -252.95c0,-13.29 15.4,-18.64 24.56,-18.64l54.63 0c9.13,0 24.56,5.09 24.56,18.38l0 209.98c0,6.01 -10.44,7.97 -15.5,7.97 -0.15,0 -14.85,-0.09 -14.85,-7.97l0 -191.51 -37.77 0 0 191.51c0,26.17 22.14,45.21 52.62,45.21 30.88,0 53.26,-19.04 53.26,-45.21l0 -214.8c0,-19.52 -17.56,-50.54 -64.73,-50.54l-194.4 0c-47.14,0 -64.7,31.02 -64.7,50.54l0 214.8c0,26.17 22.36,45.21 53.21,45.21 30.53,0 52.62,-19.04 52.62,-45.21l0 -191.51 -37.74 0 0 191.51c0,7.88 -14.72,7.97 -14.88,7.97 -5.04,0 -15.47,-1.96 -15.47,-7.97l0 -209.98c0,-13.29 15.4,-18.38 24.58,-18.38l54.61 0c9.15,0 24.58,5.35 24.58,18.64l0 252.95 40.81 0z"></path>
   <path class="fil0" d="M4187.19 296.85l0 -254.51 0.31 -1.66c2.86,-15.1 16.4,-40.64 47.37,-40.64l215.22 0 0.61 0.04c18.82,1.28 49.78,14.92 49.78,47.3l0 80.41c0,30.35 -21.44,48.49 -52.23,48.49l-184.39 0 0 -104.83 160.73 0 0 37.06 -111.8 0c0,0 -16.64,-1.32 -16.64,15.1 0,18.05 16.64,15.6 16.64,15.6l132.42 0c9.82,0 14.61,-4.71 14.61,-14.43l0 -71.4c0,-7.39 -9.51,-12.68 -14.9,-13.25l-205.03 0c-6.23,0 -15.12,8.38 -15.12,15.93l0 240.78c0,6.62 -5.46,13.51 -12.17,13.51l-13.25 0c-6.71,0 -12.17,-6.88 -12.17,-13.51z"></path>
   <path class="fil0" d="M3726.44 205.68l0 55.85c-1.16,11.58 -11.86,11.6 -15.4,11.6 -9.68,0 -15.1,-4.02 -16.09,-11.97l0 -76.76c0,-17.85 20.23,-19.72 20.23,-19.72l22.23 0c9.6,-0.65 23.9,-8.34 23.9,-26.86l0 -91.14c0.24,-4.68 0.11,-20.38 -11.26,-32.72 -5.85,-6.33 -16.79,-13.93 -35.5,-13.93l-225.66 0c-18.71,0 -29.64,7.59 -35.5,13.93 -11.38,12.35 -11.51,28.04 -11.29,32.72l0 91.14c0,18.53 14.3,26.21 23.92,26.86l22.23 0c0,0 20.22,3.09 20.22,20.93 -0.17,35.88 0.05,73.93 0,75.55 -0.96,7.95 -6.38,11.97 -16.11,11.97 -3.52,0 -14.23,-0.02 -15.4,-11.6l0 -55.85 -37.55 0 0 57.28 0 0.44c0.86,18.64 15.47,46.33 52.09,46.77l1.74 0c36.39,-0.44 51.48,-27.86 52.75,-46.37l0.02 -0.55 0 -125.85 -56.54 0c0,0 -9.82,1.26 -9.82,-11.11l-0.04 -81.55 1.61 -5.91c1.05,-1.12 3.94,-1.79 7.66,-1.79l225.66 0c3.71,0 6.58,0.66 7.66,1.79l1.63 5.91 -0.09 81.55c0,12.37 -9.79,11.11 -9.79,11.11l-56.57 0 0 125.85 0.05 0.55c1.28,18.51 16.37,45.93 52.73,46.37l1.74 0c36.64,-0.44 51.26,-28.12 52.11,-46.77l0 -0.44 0 -57.28 -37.57 0z"></path>
   <path class="fil0" d="M3688.91 64.78l0 37.04 -57.65 0c-6.3,0 -10.53,5.04 -10.53,11.26l0 195.77 -41.68 0 0 -195.77c0,-6.23 -4.23,-11.26 -10.54,-11.26l-57.64 0 0 -37.04 178.04 0z"></path>
   <path class="fil0" d="M4089.2 124.69c0,9.73 -4.78,14.44 -14.64,14.44l-132.38 0c0,0 -16.59,2.42 -16.59,-15.6 0,-16.4 16.59,-15.08 16.59,-15.08l111.78 0 0 -37.08 -160.66 0 0 104.85 184.32 0c30.79,0 52.23,-18.16 52.23,-48.51l0 -80.38c0,-32.37 -30.99,-46.02 -49.77,-47.27l-0.64 -0.05 -215.16 0c-30.94,0 -44.5,25.53 -47.34,40.6l-0.33 1.67 0 214.96c0,20.91 8.63,33.13 15.83,39.73 14.57,13.31 33.43,11.95 38.29,11.73l214.76 0c40.74,0 45.53,-28.67 45.53,-53.19 0,-19.04 -4.34,-54.71 -44.07,-54.71l-194.11 0 0 37.08 189.21 0c9.9,0 17.49,1.96 17.49,15.87 0,17.24 -6.51,17.89 -18.97,17.89l-210.67 0 -0.74 0.05c-1.87,0.06 -7.99,-0.37 -11.29,-3.5 -2.42,-2.31 -3.68,-6.49 -3.68,-12.44l0 -200.3c0,-7.55 8.89,-15.93 15.12,-15.93l204.98 0c8.26,0 14.88,5.83 14.88,13.25l0 71.92z"></path>
   <path class="fil0" d="M2732.05 255.52l0 -71.37c0,-9.71 4.77,-14.42 14.64,-14.42l132.4 0c0,0 16.59,-2.42 16.59,15.6 0,16.37 -16.59,15.05 -16.59,15.05l-111.79 0 0 37.09 160.66 0 0 -104.83 -184.32 0c-30.81,0 -52.25,18.14 -52.25,48.51l0 80.37c0,32.35 30.99,46.02 49.78,47.32l0.64 0 215.15 0c30.93,0 44.51,-25.53 47.34,-40.61l0.31 -1.67 0 -214.98c0,-20.86 -8.6,-33.12 -15.8,-39.7 -14.57,-13.32 -33.43,-11.96 -38.29,-11.76l-214.76 0c-40.74,0 -45.56,28.7 -45.56,53.17 0,19.04 4.36,54.73 44.06,54.73l194.12 0 0 -37.06 -189.19 0c-9.9,0 -17.49,-2 -17.49,-15.89 0,-17.21 6.51,-17.89 18.95,-17.89l211.43 -0.02c1.85,-0.09 7.97,0.4 11.27,3.5 2.42,2.31 3.68,6.49 3.68,12.41l0 200.3c0,7.57 -8.88,15.96 -15.13,15.96l-204.96 0c-8.26,0 -14.9,-5.84 -14.9,-13.25l0 -0.57z"></path>
   <polygon class="fil0" points="2330.84,430.96 2307.61,430.96 2307.61,558.39 2390.06,558.39 2390.06,537.22 2330.84,537.22 "></polygon>
   <polygon class="fil0" points="2424.61,558.4 2448,558.4 2448,430.97 2424.61,430.97 "></polygon>
   <polygon class="fil0" points="2534.67,524.04 2505.5,433.34 2504.76,430.96 2480.09,430.96 2523.03,556.06 2523.82,558.39 2544.86,558.39 2590.42,430.96 2565.72,430.96 "></polygon>
   <polygon class="fil0" points="2622.68,558.4 2646.08,558.4 2646.08,430.97 2622.68,430.97 "></polygon>
   <polygon class="fil0" points="2772.62,519.78 2712.87,432.45 2711.84,430.96 2691.13,430.96 2691.13,558.41 2713.51,558.41 2712.09,468.39 2772.6,556.91 2773.61,558.41 2793.67,558.41 2793.67,430.96 2771.97,430.96 "></polygon>
   <path class="fil0" d="M2902.85 448.06c5.63,0 19.74,1.1 28.8,11.38 3.07,3.27 5.25,7.08 7.07,12.3l1.05 2.94 24.14 -6.05 -1.83 -3.76c-1.83,-3.81 -3.46,-6.74 -5.29,-9.51 -10.19,-15.12 -23.68,-21.32 -30.79,-23.68 -7.13,-2.51 -15.1,-3.79 -23.68,-3.79 -20.38,0 -36.4,6.65 -49.01,20.29 -14.46,15.98 -17.5,34.92 -17.5,48.02 0,38.54 24.39,54.16 34.88,59.14 8.94,4.11 18.56,6.11 29.38,6.11 22.85,0 35.9,-9.15 41.2,-13.97l0 10.92 21.13 0 0 -70.56 -63.73 0 0 20.31 42.63 0c-0.4,10.8 -5.01,19.28 -13.75,25.2 -8.89,6.03 -18.56,7.29 -25.07,7.29 -19.13,0 -27.93,-8.93 -32.84,-15.65 -5.89,-8.23 -8.89,-18.53 -8.89,-30.66 0,-17.05 6.32,-27.71 11.62,-33.63 7.46,-8.38 17.72,-12.65 30.46,-12.65z"></path>
   <polygon class="fil0" points="3070.48,451.82 3107.19,451.82 3107.19,558.41 3130.38,558.41 3130.38,451.82 3166.94,451.82 3166.94,430.96 3070.48,430.96 "></polygon>
   <polygon class="fil0" points="3225.54,503.24 3285.13,503.24 3285.13,482.41 3225.54,482.41 3225.54,452 3294.14,452 3294.14,430.96 3203.02,430.96 3203.02,558.39 3296.22,558.39 3296.22,537.57 3225.54,537.57 "></polygon>
   <path class="fil0" d="M3431.8 508.55c-1.48,7.46 -2.95,11.14 -4.67,14.44 -6.49,11.9 -17.65,15.82 -20.96,16.74 -5.06,1.41 -9.6,1.41 -11.51,1.41 -6.09,0 -11.64,-0.95 -16.5,-2.8 -7.17,-2.97 -23.86,-13.27 -23.86,-44.53 0,-21.72 8.21,-36.64 23.71,-43.11 6.89,-2.85 13.82,-3.17 16.5,-3.17 18.51,0 27.91,10.21 31.08,14.59 1.21,1.7 3.04,4.62 5.13,10.48l1.01 2.75 23.35 -4.58 -1.38 -3.74c-3.08,-8.34 -6.58,-14.51 -11.36,-20.01 -10.83,-12.52 -27.31,-19.12 -47.67,-19.12 -39.65,0 -65.27,26.21 -65.27,66.77 0,26.94 11.05,42.78 20.31,51.34 11.25,10.24 25.66,15.45 42.89,15.45 7.22,0 14.15,-0.97 20.55,-2.86 26.72,-7.76 37.37,-29.9 39.99,-36.51 1.83,-4.54 2.73,-8.33 3.11,-10.17l0.77 -3.66 -24.6 -2.81 -0.61 3.08z"></path>
   <polygon class="fil0" points="3576.44,482.23 3516.87,482.23 3516.87,430.97 3493.82,430.97 3493.82,558.4 3516.87,558.4 3516.87,503.23 3576.44,503.23 3576.44,558.4 3599.84,558.4 3599.84,430.97 3576.44,430.97 "></polygon>
   <polygon class="fil0" points="3728.32,519.78 3668.59,432.45 3667.55,430.96 3646.84,430.96 3646.84,558.41 3669.23,558.41 3667.81,468.39 3728.29,556.91 3729.33,558.41 3749.36,558.41 3749.36,430.96 3727.68,430.96 "></polygon>
   <path class="fil0" d="M3874.32 538.71c-4.97,2.18 -10.74,3.28 -17.12,3.28 -7.58,0 -12.22,-1.33 -15.43,-2.49 -1.42,-0.55 -5.88,-2.29 -10.67,-6.39 -1.47,-1.25 -4.58,-4.42 -7.17,-8.3 -2.84,-4.55 -7.59,-14.52 -7.59,-30.13 0,-12.41 3.19,-24.01 8.71,-31.87 4.8,-6.8 14.22,-14.94 31.83,-15.1 13.77,0 24.36,4.87 31.49,14.48 4.03,5.42 8.84,15.3 8.84,31.48 0.2,31.3 -15.95,41.93 -22.88,45.03zm8.03 -106.3c-7.75,-2.95 -16.57,-4.51 -25.51,-4.51 -19.25,0 -37.56,7.53 -49.01,20.12 -10.69,11.88 -16.11,27.53 -16.11,46.5 0,20.93 6.98,38.47 20.18,50.67 11.52,10.65 26.89,16.3 44.43,16.3 29.51,0 45.23,-14.88 51.96,-23.77 8.83,-11.75 13.5,-26.98 13.5,-44.05 0,-29.36 -14.38,-51.68 -39.44,-61.26z"></path>
   <polygon class="fil0" points="3985.45,430.96 3962.23,430.96 3962.23,558.39 4044.67,558.39 4044.67,537.22 3985.45,537.22 "></polygon>
   <path class="fil0" d="M4151.07 538.71c-5,2.18 -10.74,3.28 -17.13,3.28 -7.59,0 -12.21,-1.33 -15.4,-2.49 -1.45,-0.55 -5.88,-2.29 -10.7,-6.39 -1.34,-1.16 -4.55,-4.38 -7.15,-8.3 -2.86,-4.58 -7.62,-14.59 -7.62,-30.13 0,-12.41 3.17,-23.99 8.74,-31.87 4.78,-6.8 14.2,-14.97 31.8,-15.1 13.78,0 24.37,4.87 31.5,14.48 4.03,5.42 8.85,15.3 8.85,31.48 0.22,31.3 -15.93,41.93 -22.89,45.03zm8.04 -106.3c-7.75,-2.95 -16.58,-4.51 -25.51,-4.51 -19.26,0 -37.57,7.53 -49.01,20.12 -10.7,11.88 -16.11,27.53 -16.11,46.5 0,20.96 6.98,38.47 20.18,50.67 11.54,10.65 26.92,16.3 44.44,16.3 29.51,0 45.22,-14.88 51.96,-23.77 8.82,-11.75 13.49,-26.98 13.49,-44.05 0,-29.36 -14.37,-51.68 -39.43,-61.26z"></path>
   <path class="fil0" d="M4302.89 448.06c5.64,0 19.74,1.1 28.81,11.35 3.1,3.37 5.28,7.16 7.07,12.31l1.03 2.97 24.17 -6.05 -1.83 -3.76c-1.84,-3.85 -3.47,-6.78 -5.26,-9.51 -10.19,-15.14 -23.7,-21.32 -30.81,-23.68 -7.13,-2.51 -15.1,-3.79 -23.68,-3.79 -20.38,0 -36.4,6.65 -49.02,20.29 -14.46,16.02 -17.49,34.95 -17.49,48.02 0,38.5 24.4,54.16 34.92,59.14 8.92,4.11 18.51,6.11 29.34,6.11 22.85,0 35.92,-9.15 41.22,-14l0 10.94 21.13 0 0 -70.56 -63.76 0 0 20.31 42.61 0c-0.47,11 -4.96,19.26 -13.71,25.2 -8.89,6.03 -18.55,7.29 -25.07,7.29 -19.15,0 -27.93,-8.93 -32.86,-15.65 -5.9,-8.23 -8.89,-18.53 -8.89,-30.66 0,-17.05 6.31,-27.71 11.61,-33.63 7.44,-8.38 17.7,-12.65 30.46,-12.65z"></path>
   <polygon class="fil0" points="4473.92,430.96 4443.31,479.03 4414.01,432.57 4412.97,430.96 4385.49,430.96 4431.35,500.82 4431.35,558.39 4454.71,558.39 4454.71,500.86 4501.69,430.96 "></polygon>
  </g>
  <polygon class="fil1" points="1661.47,279.95 1938.39,279.95 1938.39,3.03 1661.47,3.03 "></polygon>
  <polygon class="fil2" points="1384.57,279.95 1661.51,279.95 1661.51,3.03 1384.57,3.03 "></polygon>
  <polygon class="fil3" points="1107.65,279.95 1384.57,279.95 1384.57,3.03 1107.65,3.03 "></polygon>
  <polygon class="fil4" points="830.73,279.95 1107.65,279.95 1107.65,3.03 830.73,3.03 "></polygon>
  <polygon class="fil5" points="1661.45,556.89 1938.38,556.89 1938.38,279.95 1661.45,279.95 "></polygon>
  <polygon class="fil6" points="1107.65,556.89 1384.57,556.89 1384.57,279.95 1107.65,279.95 "></polygon>
  <polygon class="fil5" points="830.73,556.89 1107.65,556.89 1107.65,279.95 830.73,279.95 "></polygon>
  <polygon class="fil4" points="553.8,556.89 830.73,556.89 830.73,279.95 553.8,279.95 "></polygon>
  <polygon class="fil7" points="-0,556.89 276.92,556.89 276.92,279.95 -0,279.95 "></polygon>
  <polygon class="fil8" points="1384.56,279.95 1661.49,279.95 1661.49,556.87 1384.56,556.87 "></polygon>
 </g>
</svg>
