<svg width="100" height="127" viewBox="0 0 100 127" fill="none" xmlns="http://www.w3.org/2000/svg">
<path d="M67.1771 117.758V121.981H65.5205V112.303H67.1771V116.246H71.1461V112.303H72.8027V121.981H71.1461V117.758H67.1771Z" fill="#8C8C8C"/>
<path d="M74.9326 124.415L76.0005 121.792C75.2185 119.642 74.2683 117.107 73.4189 114.877H75.168C75.9248 117.142 76.3537 118.558 76.833 119.957C77.2535 118.776 77.943 116.556 78.498 114.877H80.205C79.011 118.016 77.8253 121.172 76.5471 124.424H74.9326V124.415Z" fill="#8C8C8C"/>
<path d="M85.548 121.969V120.964C85.1611 121.585 84.3623 122.127 83.1934 122.127C81.335 122.127 80.04 120.614 80.04 118.394C80.04 116.173 81.2762 114.626 83.2271 114.626C84.3118 114.626 85.0855 115.177 85.4639 115.763C85.4471 115.264 85.4471 114.845 85.4471 114.355V112.283H87.0364V121.961H85.5396L85.548 121.969ZM81.6714 118.42C81.6714 119.775 82.3778 120.789 83.5634 120.789C84.7491 120.789 85.5396 119.758 85.5396 118.368C85.5396 116.978 84.7155 115.999 83.5718 115.999C82.4282 115.999 81.6714 117.065 81.6714 118.42Z" fill="#8C8C8C"/>
<path d="M89.5554 114.851V115.34C89.5554 115.506 89.5554 115.664 89.5386 115.812C89.774 115.095 90.4131 114.685 91.1952 114.685C91.3633 114.685 91.4811 114.702 91.5736 114.711V116.284C91.4558 116.241 91.2708 116.232 91.1195 116.232C89.8834 116.232 89.6647 117.15 89.6647 118.618V121.975H88.0754V116.144C88.0754 115.699 88.0754 115.288 88.0586 114.859H89.5554V114.851Z" fill="#8C8C8C"/>
<path d="M98.8371 118.405C98.8371 120.599 97.4412 122.173 95.2297 122.173C93.0181 122.173 91.6895 120.59 91.6895 118.405C91.6895 116.219 93.1106 114.602 95.2549 114.602C97.3992 114.602 98.8371 116.176 98.8371 118.405ZM93.3124 118.387C93.3124 119.839 94.0272 120.783 95.2297 120.783C96.4322 120.783 97.1553 119.839 97.1553 118.387C97.1553 116.936 96.4238 115.975 95.2297 115.975C94.0356 115.975 93.3124 116.98 93.3124 118.387Z" fill="#8C8C8C"/>
<path d="M51.1227 108.009H42.8314C42.5876 108.009 42.3857 108.219 42.3857 108.472C42.3857 108.726 42.5876 108.935 42.8314 108.935C47.1537 108.935 50.6771 112.59 50.6771 117.092C50.6771 121.594 47.1537 125.239 42.8314 125.239C42.5876 125.239 42.3857 125.449 42.3857 125.703C42.3857 125.956 42.5876 126.166 42.8314 126.166H51.1227C55.9411 126.166 59.8597 122.092 59.8597 117.083C59.8597 112.074 55.9411 108 51.1227 108V108.009ZM49.6512 125.134C52.4345 123.613 54.335 120.58 54.335 117.092C54.335 113.604 52.4345 110.57 49.6512 109.049C53.3595 109.696 56.2018 113.053 56.2018 117.092C56.2018 121.131 53.3595 124.488 49.6512 125.134ZM51.5684 117.092C51.5684 113.604 49.668 110.57 46.893 109.049C50.6014 109.696 53.4352 113.053 53.4352 117.092C53.4352 121.131 50.6014 124.488 46.893 125.134C49.668 123.613 51.5684 120.58 51.5684 117.092ZM52.4177 125.134C55.2011 123.613 57.1016 120.58 57.1016 117.092C57.1016 113.604 55.2011 110.57 52.4177 109.049C56.1261 109.696 58.9684 113.053 58.9684 117.092C58.9684 121.131 56.1261 124.488 52.4177 125.134Z" fill="#8C8C8C"/>
<path d="M28 119.217L29.3491 112.535H31.3341C31.7003 112.535 31.9701 112.555 32.1435 112.585C32.4326 112.635 32.6735 112.725 32.8662 112.856C33.059 112.986 33.2131 113.156 33.3288 113.387C33.4348 113.607 33.4926 113.857 33.4926 114.128C33.4926 114.499 33.3962 114.819 33.2035 115.1C33.0108 115.38 32.7121 115.591 32.3073 115.741C32.6542 115.861 32.9144 116.041 33.0879 116.272C33.2613 116.512 33.348 116.793 33.348 117.103C33.348 117.474 33.2421 117.825 33.0397 118.165C32.8373 118.506 32.5675 118.766 32.2303 118.947C31.893 119.127 31.5268 119.227 31.1125 119.227H28V119.217ZM29.0118 118.456H30.4765C30.8619 118.456 31.1221 118.446 31.257 118.416C31.5268 118.365 31.7485 118.285 31.9219 118.165C32.0954 118.045 32.2206 117.895 32.317 117.704C32.4133 117.514 32.4615 117.314 32.4615 117.103C32.4615 116.793 32.3652 116.552 32.1821 116.392C31.9894 116.232 31.6328 116.152 31.1028 116.152H29.4743L29.0118 118.466V118.456ZM29.6285 115.38H30.9294C31.5557 115.38 31.999 115.28 32.2688 115.07C32.5386 114.859 32.6832 114.559 32.6832 114.168C32.6832 113.978 32.6446 113.817 32.5579 113.677C32.4712 113.537 32.3555 113.437 32.2206 113.377C32.0761 113.317 31.8159 113.286 31.4208 113.286H30.0525L29.6285 115.38Z" fill="#8C8C8C"/>
<path d="M33.5936 121.08L33.6418 120.309C33.8056 120.359 33.9694 120.379 34.1236 120.379C34.2778 120.379 34.4127 120.339 34.5091 120.269C34.6343 120.168 34.7789 119.978 34.933 119.708L35.1836 119.237L34.4031 114.388H35.1836L35.5305 116.833C35.5979 117.313 35.6557 117.794 35.7136 118.285L37.795 114.388H38.6237L35.6557 119.868C35.3667 120.399 35.1161 120.759 34.8945 120.93C34.6729 121.1 34.4127 121.19 34.1236 121.19C33.9405 121.19 33.7574 121.16 33.584 121.09L33.5936 121.08Z" fill="#8C8C8C"/>
<g clip-path="url(#clip0_5191_65152)">
<path d="M99 0H0V99H99V0Z" fill="black"/>
<path d="M44.6481 26.3022H32.9941V37.9556H44.6481V26.3022Z" fill="white"/>
<path d="M65.5085 26.3022H53.8545V37.9556H65.5085V26.3022Z" fill="white"/>
<path d="M44.6481 47.1387H32.9941V58.792H44.6481V47.1387Z" fill="white"/>
<path d="M65.5085 47.1387H53.8545V58.792H65.5085V47.1387Z" fill="white"/>
<path d="M61.6179 30.2314H37.0244V54.8236H61.6179V30.2314Z" fill="#0072CF"/>
<path d="M10.5862 92.712H6.95869V82.4224H2.24121V79.8794H15.2646V82.4224H10.5862V92.712Z" fill="white"/>
<path d="M26.6221 92.712H18.0088V79.8794H27.1419V82.4057H21.5581V84.8593H26.3873V87.3688H21.5581V90.1634H28.1648L26.6221 92.712Z" fill="white"/>
<path d="M39.0648 92.6957C38.5617 92.8242 37.7122 93.0422 36.2086 93.0422C31.329 93.0422 28.4561 90.1526 28.4561 86.447C28.4561 82.7415 31.1781 79.5557 36.4601 79.5557C38.0028 79.5557 39.1766 79.8295 40.1044 80.081V82.9371C39.6181 82.6464 38.5003 81.9758 36.8849 81.9758C33.8778 81.9758 32.1618 83.9599 32.1618 86.3017C32.1618 88.7721 34.012 90.7004 37.1756 90.7004C38.3885 90.7004 39.607 90.4433 40.7249 90.0073L39.0648 92.6957Z" fill="white"/>
<path d="M54.0555 92.712H50.4894V87.2403H45.185V92.712H41.6357V79.8794H45.185V84.6972H50.4894V79.8794H54.0555V92.712Z" fill="white"/>
<path d="M69.3143 92.712H67.017L59.5551 84.9152V92.712H56.1064V79.8794H59.2253L65.8824 86.8378V79.8794H69.3143V92.712Z" fill="white"/>
<path d="M79.0181 88.1681L77.5704 84.1159C77.4754 83.8253 77.4363 83.7359 77.3804 83.4061C77.2463 83.8085 77.2463 83.8421 77.168 84.0433L75.603 88.1681H79.0181ZM84.4175 92.712H80.6558L79.728 90.1466H74.8652L73.8814 92.712H70.3545L75.7148 79.8794H79.169L84.4175 92.712Z" fill="white"/>
<path d="M93.696 92.712H85.4404V79.8794H89.0065V90.1466H95.2778L93.696 92.712Z" fill="white"/>
<path d="M93.1873 80.774V81.3776H93.7462C93.8971 81.3776 94.0424 81.3385 94.0704 81.1093C94.1039 80.8075 93.8859 80.774 93.7462 80.774H93.1873ZM92.9637 80.5728H93.7406C94.0145 80.5728 94.2716 80.6231 94.294 81.0199C94.3051 81.2435 94.2381 81.3273 94.0648 81.4559C94.2436 81.5676 94.2492 81.5956 94.2772 81.903C94.294 82.1321 94.266 82.1713 94.361 82.3222H94.0983L94.0592 82.0986C94.0201 81.8918 94.1263 81.5676 93.763 81.5676H93.1873V82.3222H92.9637V80.5728ZM93.5506 80.0865C92.7792 80.0865 92.1532 80.7181 92.1588 81.495C92.1588 82.2663 92.7848 82.8979 93.5562 82.8979C94.3275 82.8979 94.9535 82.2719 94.9535 81.4894C94.9535 80.7069 94.3275 80.0809 93.5506 80.0809V80.0865ZM93.5506 83.0767C92.673 83.0767 91.9688 82.3669 91.9688 81.4894C91.9688 80.6119 92.6786 79.8965 93.5506 79.8965C94.4225 79.8965 95.1324 80.6119 95.1324 81.4894C95.1324 82.3669 94.4225 83.0711 93.5506 83.0767Z" fill="white"/>
<path d="M93.1873 80.7738V81.3774H93.7462C93.8971 81.3774 94.0424 81.3382 94.0704 81.1091C94.1039 80.8073 93.8859 80.7738 93.7462 80.7738H93.1873V80.7738ZM92.9637 80.5725H93.7406C94.0145 80.5725 94.2716 80.6228 94.294 81.0197C94.3051 81.2432 94.2381 81.3271 94.0648 81.4556C94.2436 81.5674 94.2492 81.5953 94.2772 81.9027C94.294 82.1319 94.266 82.171 94.361 82.3219H94.0983L94.0592 82.0984C94.0201 81.8916 94.1263 81.5674 93.763 81.5674H93.1873V82.3219H92.9637V80.5725V80.5725ZM93.5506 80.0863C92.7792 80.0863 92.1532 80.7179 92.1588 81.4947C92.1588 82.266 92.7848 82.8976 93.5562 82.8976C94.3275 82.8976 94.9535 82.2716 94.9535 81.4892C94.9535 80.7067 94.3275 80.0807 93.5506 80.0807V80.0863ZM93.5506 83.082C92.673 83.082 91.9688 82.3722 91.9688 81.4947C91.9688 80.6173 92.6786 79.9019 93.5506 79.9019C94.4225 79.9019 95.1324 80.6173 95.1324 81.4947C95.1324 82.3722 94.4225 83.0765 93.5506 83.082Z" stroke="white" stroke-width="0.03"/>
</g>
<defs>
<clipPath id="clip0_5191_65152">
<rect width="99" height="99" fill="white"/>
</clipPath>
</defs>
</svg>
